<svg width="76" height="35" viewBox="0 0 76 35" fill="none" xmlns="http://www.w3.org/2000/svg">
<g clip-path="url(#clip0_810_279)">
<path fill-rule="evenodd" clip-rule="evenodd" d="M5.26229 49.0056H5.04669C5.04669 48.898 4.99269 48.736 4.99269 48.6816C4.99269 48.628 4.99269 48.5204 4.8307 48.5204H4.50672V49.0056H4.34472V47.8724H4.8307C5.04669 47.8724 5.20829 47.9268 5.20829 48.142C5.20829 48.304 5.15429 48.3584 5.10069 48.4116C5.15468 48.466 5.20829 48.52 5.20829 48.628V48.8436C5.20829 48.898 5.20829 48.898 5.26229 48.898V49.0056ZM5.04669 48.1964C5.04669 48.0344 4.9387 48.0344 4.8847 48.0344H4.50672V48.3584H4.8307C4.9387 48.3584 5.04669 48.304 5.04669 48.1964ZM5.96425 48.412C5.96425 47.7648 5.42467 47.2245 4.72271 47.2245C4.07513 47.2245 3.53516 47.7648 3.53516 48.412C3.53516 49.1136 4.07513 49.654 4.72271 49.654C5.42428 49.6536 5.96425 49.1136 5.96425 48.412ZM5.80226 48.412C5.80226 49.006 5.31668 49.4376 4.72271 49.4376C4.12874 49.4376 3.69715 49.0056 3.69715 48.412C3.69715 47.8724 4.12913 47.3865 4.72271 47.3865C5.31629 47.3865 5.80226 47.8724 5.80226 48.412ZM72.3027 26.6053C72.3027 28.2248 71.2771 28.9796 69.4416 28.9796H65.9338V27.3601H69.4416C69.7656 27.3601 70.0356 27.3065 70.144 27.1989C70.2516 27.0905 70.3596 26.9285 70.3596 26.7129C70.3596 26.4965 70.252 26.2809 70.144 26.1733C70.0356 26.065 69.82 26.0113 69.496 26.0113C67.8233 25.957 65.7178 26.065 65.7178 23.6902C65.7178 22.6103 66.4193 21.4227 68.3085 21.4227H71.9247V23.0423H68.5781C68.2549 23.0423 68.0385 23.0423 67.8765 23.1499C67.7145 23.3119 67.6069 23.4739 67.6069 23.7439C67.6069 24.0138 67.7689 24.1758 67.9845 24.2842C68.2009 24.3378 68.4169 24.3918 68.6868 24.3918H69.658C70.6836 24.3918 71.3315 24.6074 71.7635 24.9858C72.0867 25.3634 72.3027 25.8497 72.3027 26.6053ZM64.6918 24.9858C64.2598 24.6074 63.6119 24.3918 62.5863 24.3918H61.6151C61.3456 24.3918 61.1292 24.3374 60.9136 24.2842C60.6972 24.1758 60.536 24.0138 60.536 23.7439C60.536 23.4739 60.5896 23.3119 60.8056 23.1499C60.9676 23.0423 61.1832 23.0423 61.5072 23.0423H64.8538V21.4227H61.2376C59.294 21.4227 58.6461 22.6103 58.6461 23.6902C58.6461 26.0646 60.7516 25.957 62.4251 26.0113C62.7483 26.0113 62.9647 26.065 63.0723 26.1733C63.1799 26.2809 63.2887 26.4965 63.2887 26.7129C63.2887 26.9285 63.1803 27.0905 63.0723 27.1989C62.9103 27.3065 62.6947 27.3601 62.3707 27.3601H58.8621V28.9796H62.3707C64.2055 28.9796 65.2314 28.2245 65.2314 26.6053C65.2314 25.8497 65.0158 25.3634 64.6918 24.9858ZM57.7825 27.4149H53.5191V25.9034H57.6749V24.3926H53.5191V22.9887H57.7825V21.4235H51.7376V28.98H57.7825V27.4149ZM49.794 21.8015C49.2001 21.4775 48.4985 21.4231 47.5809 21.4231H43.4251V28.9796H45.2598V26.2269H47.2033C47.8505 26.2269 48.2289 26.2813 48.4989 26.5509C48.8229 26.9285 48.8229 27.5765 48.8229 28.0625V28.9796H50.6036V27.5221C50.6036 26.8205 50.55 26.4965 50.334 26.119C50.172 25.9026 49.8488 25.633 49.4168 25.471C49.902 25.3098 50.7124 24.6618 50.7124 23.4739C50.712 22.6107 50.388 22.1247 49.794 21.8015ZM39.5385 21.4231H33.7627L31.4416 23.9062L29.2285 21.4231H21.9416V28.9796H29.1209L31.442 26.4965L33.6551 28.9796H37.1638V26.4433H39.4309C40.996 26.4433 42.5619 26.0113 42.5619 23.9062C42.5615 21.8551 40.942 21.4231 39.5385 21.4231ZM48.3365 24.5542C48.0669 24.6618 47.7969 24.6618 47.4729 24.6618L45.2598 24.7162V22.9883H47.4729C47.7969 22.9883 48.1209 22.9883 48.3365 23.1503C48.5529 23.2587 48.7141 23.4743 48.7141 23.7982C48.7141 24.1222 48.5529 24.3922 48.3365 24.5542ZM39.5385 24.9318H37.1634V22.9883H39.5385C40.1864 22.9883 40.618 23.2587 40.618 23.9062C40.618 24.5542 40.186 24.9318 39.5385 24.9318ZM32.5752 25.2014L35.3818 22.2331V28.3325L32.5752 25.2014ZM28.2029 27.4149H23.7227V25.9034H27.717V24.3926H23.7227V22.9887H28.2569L30.2541 25.2018L28.2029 27.4149ZM67.2825 15.9714H64.6918L61.2912 10.3036V15.9714H57.6213L56.9189 14.2978H53.1407L52.4391 15.9714H50.3336C49.4701 15.9714 48.3365 15.7554 47.6893 15.1074C47.0953 14.4598 46.7714 13.5963 46.7714 12.2467C46.7714 11.1132 46.9334 10.0876 47.7425 9.27805C48.2821 8.68408 49.2541 8.41448 50.4952 8.41448H52.2224V10.034H50.4952C49.848 10.034 49.4697 10.142 49.0921 10.466C48.7681 10.79 48.6061 11.3835 48.6061 12.1931C48.6061 13.0027 48.7681 13.5967 49.0921 13.9746C49.3617 14.2442 49.848 14.3522 50.3332 14.3522H51.1432L53.7339 8.41487H56.433L59.4556 15.5398V8.41448H62.2627L65.4474 13.6503V8.41448H67.2821L67.2825 15.9714ZM45.8538 8.41448H44.0191V15.9714H45.8538V8.41448ZM42.0212 8.73847C41.4272 8.41448 40.78 8.41448 39.8624 8.41448H35.7058V15.9714H37.487V13.2183H39.4301C40.078 13.2183 40.51 13.2723 40.7796 13.5423C41.1036 13.9203 41.0492 14.5682 41.0492 14.9998V15.9714H42.884V14.4598C42.884 13.8123 42.8303 13.4883 42.5607 13.1103C42.3988 12.8943 42.0748 12.6243 41.6972 12.4627C42.1824 12.2467 42.9927 11.6531 42.9927 10.4656C42.9931 9.60203 42.6147 9.11606 42.0212 8.73847ZM34.4103 14.4062H30.2001V12.8947H34.3563V11.3296H30.2001V9.98001H34.4103V8.41487H28.3649V15.9718H34.4103V14.4062ZM27.0154 8.41448H24.0467L21.8336 13.5423L19.4585 8.41448H16.5438V15.5394L13.4671 8.41448H10.7685L7.52978 15.9714H9.47291L10.1745 14.2978H13.9527L14.6543 15.9714H18.3249V10.034L20.9696 15.9714H22.5348L25.1799 10.034V15.9714H27.015L27.0154 8.41448ZM56.2718 12.6787L55.0298 9.71003L53.7887 12.6787H56.2718ZM40.618 11.4915C40.3484 11.6535 40.0784 11.6535 39.7005 11.6535H37.487V9.9804H39.7001C40.024 9.9804 40.4012 9.9804 40.6176 10.0884C40.8332 10.2504 40.9416 10.4664 40.9416 10.79C40.9416 11.1136 40.8336 11.3832 40.618 11.4915ZM10.8221 12.6787L12.0636 9.71003L13.3052 12.6787H10.8221ZM71.8711 -15.2817H7.4754V11.9231L9.6885 6.90334H14.3843L15.0323 8.14489V6.90334H20.5381L21.7796 9.60203L22.9672 6.90334H40.51C41.3192 6.90334 42.0208 7.06533 42.5611 7.49692V6.90334H47.3649V7.49692C48.1741 7.06494 49.1997 6.90334 50.3876 6.90334H57.3505L57.9985 8.14489V6.90334H63.1263L63.8823 8.14489V6.90334H68.9017V17.4829H63.8283L62.8571 15.8638V17.4829H56.5414L55.8398 15.7558H54.2739L53.5723 17.4829H50.28C48.9845 17.4829 48.0125 17.1589 47.3653 16.8353V17.4829H39.5385V15.0538C39.5385 14.7298 39.4845 14.6758 39.2685 14.6758H38.9989V17.4825H23.8847V16.133L23.3451 17.4825H20.1605L19.6209 16.187V17.4825H13.5211L12.8736 15.7554H11.308L10.6065 17.4825H7.4754V49.3836H71.8711V30.0052C71.1695 30.3292 70.1976 30.4912 69.226 30.4912H64.5298V29.8432C63.9902 30.2756 63.0183 30.4912 62.1011 30.4912H47.3109V28.0625C47.3109 27.7385 47.2573 27.7385 46.987 27.7385H46.7174V30.4912H41.8592V27.6305C41.05 28.0081 40.132 28.0081 39.3225 28.0081H38.7825V30.4912H32.8451L31.442 28.8716L29.8769 30.4912H20.3221V19.912H30.0381L31.4416 21.5307L32.9531 19.912H39.4845C40.2396 19.912 41.4816 20.0196 42.0212 20.5592V19.912H47.8505C48.4445 19.912 49.5784 20.0196 50.3336 20.5592V19.912H59.1321V20.5596C59.618 20.1276 60.536 19.9124 61.3452 19.9124H66.257V20.5596C66.7973 20.182 67.5525 19.9124 68.5245 19.9124H71.8711V-15.2817Z" fill="white"/>
</g>
<defs>
<clipPath id="clip0_810_279">
<rect width="75.4225" height="35" fill="white" transform="translate(0.577393)"/>
</clipPath>
</defs>
</svg>
