<svg width="116" height="30" viewBox="0 0 116 30" fill="none" xmlns="http://www.w3.org/2000/svg">
<path d="M24.6122 28.1663C32.3097 28.2031 39.3355 21.8887 39.3355 14.2069C39.3355 5.80649 32.3097 1.46323e-05 24.6122 0.00280863H17.9877C10.198 1.46323e-05 3.78638 5.80822 3.78638 14.2069C3.78638 21.8903 10.198 28.2031 17.9877 28.1663H24.6122Z" fill="#0079BE"/>
<path d="M18.0192 1.16675C10.9012 1.16898 5.13327 6.93858 5.13159 14.0594C5.13327 21.179 10.9011 26.948 18.0192 26.9503C25.1388 26.948 30.9079 21.179 30.9089 14.0594C30.9078 6.93858 25.1388 1.16898 18.0192 1.16675V1.16675ZM9.85009 14.0594C9.85679 10.5798 12.03 7.61255 15.0944 6.43342V21.6836C12.03 20.5051 9.85674 17.5395 9.85009 14.0594V14.0594ZM20.9428 21.6869V6.43292C24.0084 7.60919 26.1849 10.5781 26.1905 14.0594C26.1849 17.5418 24.0084 20.5084 20.9428 21.6869Z" fill="white"/>
<path d="M43.8498 6.06188C43.8498 4.72965 43.1552 4.81738 42.4891 4.80291V4.41789C43.0663 4.44639 43.6581 4.44639 44.2365 4.44639C44.8585 4.44639 45.7028 4.41789 46.7991 4.41789C50.6336 4.41789 52.7218 6.97943 52.7218 9.60237C52.7218 11.0692 51.8636 14.7567 46.6209 14.7567C45.8659 14.7567 45.1691 14.7276 44.4734 14.7276C43.8073 14.7276 43.1552 14.7422 42.489 14.7567V14.3723C43.377 14.2828 43.8073 14.2533 43.8498 13.2457V6.06188H43.8498ZM45.3016 13.0094C45.3016 14.1499 46.1169 14.2829 46.8422 14.2829C50.0419 14.2829 51.0924 11.8683 51.0924 9.66105C51.0924 6.8922 49.3149 4.89282 46.4572 4.89282C45.8493 4.89282 45.5699 4.9364 45.3016 4.95211L45.3016 13.0094ZM53.2415 14.3723H53.522C53.9361 14.3723 54.2329 14.3723 54.2329 13.8822V9.86898C54.2329 9.21803 54.011 9.12745 53.4628 8.83296V8.59547C54.1585 8.38648 54.989 8.10708 55.047 8.06238C55.1515 8.00315 55.2398 7.9875 55.3141 7.9875C55.3874 7.9875 55.4181 8.07691 55.4181 8.19593V13.8822C55.4181 14.3723 55.7439 14.3723 56.1585 14.3723H56.4099V14.7573C55.9059 14.7573 55.3873 14.7278 54.8554 14.7278C54.3223 14.7278 53.7886 14.7423 53.2416 14.7573V14.3723H53.2415ZM54.8257 5.70699C54.4402 5.70699 54.1004 5.35165 54.1004 4.96658C54.1004 4.59554 54.4558 4.25411 54.8257 4.25411C55.2096 4.25411 55.5516 4.56654 55.5516 4.96658C55.5516 5.36668 55.2247 5.70699 54.8257 5.70699ZM57.8169 9.95727C57.8169 9.40964 57.6531 9.26212 56.9586 8.98049V8.69947C57.595 8.49215 58.2014 8.29937 58.9126 7.98756C58.9568 7.98756 59.0004 8.01773 59.0004 8.13564V9.09895C59.8459 8.49215 60.5718 7.9875 61.5653 7.9875C62.8225 7.9875 63.2667 8.90611 63.2667 10.0611V13.8823C63.2667 14.3723 63.5925 14.3723 64.0077 14.3723H64.2743V14.7573C63.7546 14.7573 63.2366 14.7278 62.7046 14.7278C62.1709 14.7278 61.6372 14.7423 61.1047 14.7573V14.3723H61.3707C61.7864 14.3723 62.081 14.3723 62.081 13.8823V10.0472C62.081 9.20171 61.5653 8.78764 60.7197 8.78764C60.2465 8.78764 59.4909 9.17271 59.0003 9.49899V13.8822C59.0003 14.3723 59.3277 14.3723 59.743 14.3723H60.009V14.7573C59.4909 14.7573 58.9718 14.7277 58.4388 14.7277C57.9062 14.7277 57.372 14.7423 56.8394 14.7573V14.3723H57.1065C57.5212 14.3723 57.8168 14.3723 57.8168 13.8822V9.95727H57.8169ZM65.4003 10.6691C65.3695 10.8027 65.3695 11.0245 65.4003 11.5286C65.4875 12.935 66.3933 14.0901 67.5762 14.0901C68.3915 14.0901 69.0296 13.6459 69.5767 13.0983L69.7834 13.3061C69.1018 14.2092 68.2579 14.9791 67.0442 14.9791C64.6889 14.9791 64.215 12.6976 64.215 11.7505C64.215 8.84688 66.1696 7.98744 67.2057 7.98744C68.4059 7.98744 69.6952 8.74244 69.7091 10.3126C69.7091 10.4026 69.7091 10.4903 69.6952 10.5803L69.561 10.6691H65.4003ZM68.0222 10.1948C68.3915 10.1948 68.4352 10.002 68.4352 9.82483C68.4352 9.06928 67.9763 8.46186 67.1465 8.46186C66.2441 8.46186 65.6221 9.12739 65.4444 10.1948H68.0222ZM70.0501 14.3723H70.4502C70.8636 14.3723 71.1598 14.3723 71.1598 13.8822V9.72084C71.1598 9.26206 70.6128 9.17266 70.3899 9.05419V8.83291C71.4711 8.37302 72.064 7.98744 72.1986 7.98744C72.2864 7.98744 72.3299 8.03215 72.3299 8.18079V9.51352H72.3613C72.7306 8.93628 73.3537 7.98744 74.2562 7.98744C74.6266 7.98744 75.1 8.2389 75.1 8.77256C75.1 9.17266 74.8194 9.52917 74.4049 9.52917C73.9439 9.52917 73.9439 9.17266 73.4264 9.17266C73.1744 9.17266 72.3457 9.51352 72.3457 10.4026V13.8822C72.3457 14.3723 72.6413 14.3723 73.0564 14.3723H73.8851V14.7573C73.0704 14.7422 72.4507 14.7277 71.8126 14.7277C71.2058 14.7277 70.5832 14.7423 70.0502 14.7573V14.3723H70.0501ZM75.752 12.6976C75.9449 13.6755 76.5366 14.5053 77.6184 14.5053C78.4901 14.5053 78.8164 13.9722 78.8164 13.4537C78.8164 11.7057 75.5888 12.2685 75.5888 9.88406C75.5888 9.05425 76.256 7.9875 77.8844 7.9875C78.3577 7.9875 78.9941 8.12161 79.5713 8.41833L79.6764 9.9277H79.335C79.1875 8.99557 78.6695 8.46198 77.7206 8.46198C77.1283 8.46198 76.5661 8.8029 76.5661 9.43931C76.5661 11.1738 80.0016 10.6391 80.0016 12.9642C80.0016 13.9416 79.2165 14.9792 77.4541 14.9792C76.8617 14.9792 76.166 14.7719 75.648 14.4763L75.4849 12.7726L75.752 12.6976ZM93.3744 7.09895H93.0049C92.7234 5.36668 91.494 4.66986 89.836 4.66986C88.1317 4.66986 85.6585 5.80975 85.6585 9.36432C85.6585 12.3584 87.7925 14.5052 90.0724 14.5052C91.5381 14.5052 92.7535 13.4983 93.0496 11.9426L93.3894 12.0309L93.0496 14.1934C92.4276 14.5795 90.7541 14.9791 89.7756 14.9791C86.3111 14.9791 84.12 12.7423 84.12 9.40959C84.12 6.37308 86.8296 4.19488 89.732 4.19488C90.9312 4.19488 92.0863 4.58157 93.2268 4.98167L93.3744 7.09895ZM93.9086 14.3723H94.1891C94.6043 14.3723 94.9016 14.3723 94.9016 13.8822V5.63328C94.9016 4.66991 94.6792 4.64024 94.1159 4.47763V4.2407C94.7082 4.04853 95.3301 3.78137 95.6415 3.60317C95.8029 3.51488 95.9225 3.43994 95.9661 3.43994C96.0566 3.43994 96.0862 3.52941 96.0862 3.64837V13.8822C96.0862 14.3723 96.4114 14.3723 96.8266 14.3723H97.0765V14.7573C96.5752 14.7573 96.0566 14.7277 95.5229 14.7277C94.9905 14.7277 94.4573 14.7423 93.9085 14.7573V14.3723H93.9086ZM103.417 13.9415C103.417 14.2092 103.58 14.2237 103.831 14.2237C104.009 14.2237 104.231 14.2092 104.424 14.2092V14.521C103.786 14.5796 102.572 14.8909 102.29 14.9792L102.216 14.9344V13.7359C101.329 14.4611 100.646 14.9792 99.5941 14.9792C98.7945 14.9792 97.9653 14.4611 97.9653 13.2178V9.42467C97.9653 9.03966 97.9066 8.66912 97.0785 8.59542V8.31378C97.6122 8.29925 98.7946 8.21035 98.9879 8.21035C99.1522 8.21035 99.1522 8.31378 99.1522 8.63956V12.46C99.1522 12.9054 99.1522 14.1789 100.44 14.1789C100.943 14.1789 101.609 13.7939 102.231 13.277V9.29051C102.231 8.99546 101.52 8.83285 100.988 8.68415V8.41761C102.319 8.3282 103.15 8.21029 103.297 8.21029C103.417 8.21029 103.417 8.31367 103.417 8.4774V13.9415H103.417ZM106.364 9.05425C106.956 8.55071 107.756 7.9875 108.571 7.9875C110.289 7.9875 111.325 9.48508 111.325 11.0983C111.325 13.0385 109.904 14.9791 107.785 14.9791C106.689 14.9791 106.112 14.6232 105.726 14.4611L105.283 14.8008L104.973 14.6388C105.104 13.7649 105.179 12.9054 105.179 12.0024V5.63323C105.179 4.66991 104.956 4.64024 104.394 4.47763V4.2407C104.988 4.04853 105.608 3.78137 105.919 3.60311C106.082 3.51482 106.2 3.43994 106.246 3.43994C106.335 3.43994 106.364 3.52941 106.364 3.64837V9.05419H106.364V9.05425ZM106.364 13.0826C106.364 13.6459 106.897 14.5947 107.889 14.5947C109.474 14.5947 110.14 13.0385 110.14 11.7198C110.14 10.1205 108.927 8.78776 107.771 8.78776C107.222 8.78776 106.764 9.14371 106.364 9.48508V13.0826H106.364ZM42.4722 23.3689H42.5856C42.8751 23.3689 43.1813 23.3299 43.1813 22.9102V18.6879C43.1813 18.2676 42.8751 18.228 42.5856 18.228H42.4722V17.986C42.7868 17.986 43.2701 18.0179 43.6663 18.0179C44.0687 18.0179 44.5515 17.986 44.9303 17.986V18.228H44.8169C44.528 18.228 44.2213 18.2677 44.2213 18.6879V22.9102C44.2213 23.3299 44.528 23.3689 44.8169 23.3689H44.9303V23.6121C44.5436 23.6121 44.0592 23.5802 43.6574 23.5802C43.2624 23.5802 42.7868 23.6121 42.4722 23.6121V23.3689Z" fill="#211E1F"/>
<path d="M44.9305 23.6462C44.541 23.6462 44.0583 23.6138 43.657 23.6138C43.263 23.6138 42.7892 23.6462 42.4723 23.6462H42.4377V23.3344H42.5853C42.8775 23.3277 43.1435 23.3042 43.1463 22.9103V18.6879C43.1435 18.294 42.8775 18.2677 42.5853 18.2621H42.4377V17.9503H42.4723C42.7892 17.9503 43.272 17.9822 43.6659 17.9822C44.0671 17.9822 44.5494 17.9503 44.9305 17.9503H44.9663V18.2621H44.8176C44.5254 18.2677 44.2576 18.294 44.256 18.6879V22.9103C44.2576 23.3042 44.5253 23.3277 44.8176 23.3344H44.9662V23.6462H44.9305ZM44.8958 23.5774V23.4053H44.8177C44.5299 23.4053 44.1873 23.3556 44.1856 22.9103V18.6879C44.1873 18.2426 44.5298 18.1923 44.8177 18.1923H44.8958V18.0213C44.5237 18.0213 44.0571 18.0526 43.6659 18.0526C43.2832 18.0526 42.8199 18.0235 42.5081 18.0213V18.1923H42.5852C42.8724 18.1923 43.2161 18.2426 43.2161 18.6879V22.9103C43.2161 23.3556 42.8724 23.4053 42.5852 23.4053H42.5081V23.5774C42.8199 23.5741 43.2753 23.545 43.657 23.545C44.0493 23.545 44.5159 23.5752 44.8958 23.5774V23.5774ZM50.4665 22.0234L50.4827 22.0078V18.9858C50.4827 18.3242 50.0228 18.228 49.7814 18.228H49.6037V17.986C49.9831 17.986 50.3536 18.0179 50.7319 18.0179C51.0621 18.0179 51.3941 17.986 51.7237 17.986V18.228H51.603C51.2639 18.228 50.885 18.2922 50.885 19.2512V22.9192C50.885 23.2008 50.8933 23.4824 50.933 23.7323H50.6263L46.4772 19.106V22.4269C46.4772 23.1282 46.613 23.369 47.2344 23.369H47.3706V23.6121C47.0248 23.6121 46.6789 23.5803 46.3318 23.5803C45.9703 23.5803 45.5993 23.6121 45.2361 23.6121V23.369H45.349C45.905 23.369 46.0738 22.9912 46.0738 22.347V18.9523C46.0738 18.5013 45.7022 18.2281 45.3412 18.2281H45.2362V17.9861C45.5423 17.9861 45.8564 18.0179 46.1621 18.0179C46.404 18.0179 46.6382 17.9861 46.8795 17.9861L50.4665 22.0234Z" fill="#211E1F"/>
<path d="M50.9328 23.7674L50.6003 23.755L46.511 19.197V22.4268C46.5205 23.1276 46.6272 23.3266 47.2341 23.3343H47.4068V23.6461H47.371C47.0223 23.6461 46.6753 23.6137 46.3316 23.6137C45.9706 23.6137 45.6007 23.6461 45.2352 23.6461H45.2V23.3343H45.3486C45.8812 23.3315 46.0332 22.9895 46.0393 22.3469V18.9528C46.0381 18.5236 45.6862 18.2632 45.3408 18.2621H45.2V17.9514H45.2352C45.5431 17.9514 45.8588 17.9821 46.1611 17.9821C46.4008 17.9821 46.6344 17.9514 46.906 17.9631L50.4476 21.9502V18.9864C50.4432 18.3449 50.0157 18.2677 49.781 18.2621H49.5675V17.9514H49.6033C49.9839 17.9514 50.3549 17.9821 50.7315 17.9821C51.0595 17.9821 51.3898 17.9514 51.7228 17.9514H51.758V18.2621H51.6027C51.2702 18.2716 50.9288 18.3006 50.9193 19.2511V22.9185C50.9193 23.2002 50.9276 23.4818 50.9668 23.726L50.9746 23.7673H50.9328V23.7674ZM50.6266 23.6964H50.8932C50.8569 23.4544 50.8507 23.1862 50.8507 22.9185V19.2511C50.8507 18.2838 51.2558 18.1923 51.6028 18.1923H51.6878V18.0212C51.3704 18.0234 51.0519 18.0525 50.7317 18.0525C50.3629 18.0525 50.0042 18.0234 49.6393 18.0212L49.6387 18.1923H49.7812C50.0287 18.1923 50.5177 18.3028 50.5177 18.9863L50.5065 22.0317L50.4903 22.0485L50.463 22.0737L46.8794 18.0212C46.6403 18.0212 46.4066 18.0525 46.1613 18.0525C45.8657 18.0525 45.5634 18.0234 45.2711 18.0212L45.2695 18.1922H45.341C45.7193 18.1922 46.1077 18.4811 46.1077 18.9527V22.3469C46.1077 22.9911 45.9283 23.4035 45.3488 23.4057L45.2711 23.4035V23.5773C45.6204 23.5739 45.9791 23.5449 46.3317 23.5449C46.6681 23.5449 47.0029 23.574 47.3358 23.5773V23.4057H47.2342C46.5999 23.4035 46.4424 23.1275 46.4418 22.4267V19.0153L50.6266 23.6964ZM50.4662 22.0228L50.4919 21.9993L50.4662 22.0228ZM50.4477 22.0072V22.0044L50.441 21.9987L50.4477 22.0072ZM52.93 18.3883C52.3248 18.3883 52.3019 18.5337 52.1812 19.1215H51.9392C51.9711 18.8963 52.0113 18.6711 52.0359 18.4364C52.0683 18.2106 52.0839 17.9859 52.0839 17.7524H52.2778C52.3426 17.9944 52.5438 17.986 52.7623 17.986H56.9192C57.1371 17.986 57.3383 17.9782 57.3551 17.7357L57.5473 17.7681C57.516 17.986 57.4836 18.2034 57.459 18.4213C57.4445 18.6387 57.4445 18.8566 57.4445 19.0734L57.2019 19.1634C57.1852 18.8656 57.1449 18.3883 56.6057 18.3883H55.2841V22.6766C55.2841 23.2979 55.5664 23.369 55.9519 23.369H56.1056V23.612C55.7915 23.612 55.2266 23.5802 54.7924 23.5802C54.3091 23.5802 53.7441 23.612 53.4295 23.612V23.369H53.5832C54.0274 23.369 54.252 23.3292 54.252 22.6933V18.3883H52.93Z" fill="#211E1F"/>
<path d="M56.107 23.6461C55.7895 23.6461 55.2257 23.6137 54.7926 23.6137C54.3098 23.6137 53.7461 23.6461 53.4297 23.6461H53.3962V23.3343H53.5834C54.0276 23.3237 54.2064 23.3181 54.2165 22.6933V18.4236H52.9302V18.3526H54.2864V22.6933C54.2864 23.3399 54.026 23.4052 53.5834 23.4058H53.465V23.5757C53.7829 23.5741 54.325 23.5449 54.7927 23.5449C55.213 23.5449 55.7516 23.5741 56.0701 23.5757V23.4058H55.9522C55.5627 23.4052 55.2492 23.3097 55.2492 22.6766V18.3526H56.606C57.1469 18.3548 57.2173 18.8147 57.2352 19.1137L57.409 19.0494C57.409 18.8393 57.4101 18.6286 57.4246 18.4163C57.4481 18.209 57.4777 18.0033 57.5079 17.7977L57.3849 17.777C57.3475 18.0117 57.1211 18.0235 56.9183 18.0212H52.7206C52.5312 18.0212 52.3239 18.0123 52.2518 17.7871H52.1188C52.118 18.0059 52.1021 18.2243 52.0712 18.4409C52.0478 18.6622 52.0109 18.8751 51.9807 19.088H52.1534C52.2595 18.5264 52.3289 18.3442 52.9301 18.3526V18.4236C52.3344 18.4342 52.3468 18.5348 52.2154 19.1305L52.2093 19.1579H51.8992L51.9036 19.116C51.9361 18.8902 51.9769 18.6655 52.0009 18.4308C52.0344 18.2073 52.05 17.9838 52.05 17.7524V17.7172H52.3054L52.311 17.7424C52.3663 17.9458 52.5155 17.9469 52.7206 17.9503H56.9183C57.143 17.9469 57.3061 17.9435 57.3201 17.7328L57.3234 17.6948L57.3597 17.7026L57.5872 17.7385L57.5821 17.7737C57.5497 17.9894 57.5179 18.2073 57.4944 18.4236C57.4782 18.6381 57.4782 18.8561 57.4782 19.0734V19.0986L57.4559 19.1075L57.1703 19.2114L57.1681 19.1645C57.1468 18.8616 57.115 18.4235 56.6059 18.4235H55.3196V22.6765C55.3268 23.2845 55.5682 23.3264 55.9521 23.3342H56.141V23.646L56.107 23.6461ZM57.8052 23.3689H57.9186C58.2081 23.3689 58.5148 23.3299 58.5148 22.9101V18.6879C58.5148 18.2676 58.2081 18.228 57.9186 18.228H57.8052V17.986C58.2958 17.986 59.1352 18.0179 59.8106 18.0179C60.4891 18.0179 61.3256 17.986 61.8732 17.986C61.8599 18.3319 61.8671 18.865 61.891 19.2188L61.648 19.2835C61.6095 18.76 61.5127 18.3415 60.6662 18.3415H59.5469V20.452H60.5048C60.988 20.452 61.0937 20.1788 61.1412 19.7424H61.3826C61.367 20.0581 61.3586 20.3722 61.3586 20.6862C61.3586 20.993 61.367 21.2987 61.3826 21.6049L61.1412 21.6529C61.0937 21.1696 61.0692 20.8555 60.5125 20.8555H59.547V22.7325C59.547 23.2572 60.0125 23.2572 60.5288 23.2572C61.496 23.2572 61.9224 23.1918 62.1644 22.2743L62.3902 22.3296C62.2846 22.7576 62.1884 23.184 62.1169 23.6121C61.6006 23.6121 60.6735 23.5802 59.9493 23.5802C59.2228 23.5802 58.2646 23.6121 57.8052 23.6121V23.3689Z" fill="#211E1F"/>
<path d="M62.1162 23.6461C61.5987 23.6461 60.6722 23.6131 59.9486 23.6131C59.2228 23.6131 58.2649 23.6461 57.805 23.6461H57.771V23.3343H57.918C58.2102 23.3299 58.475 23.3041 58.479 22.9102V18.6879C58.4751 18.2945 58.2102 18.2682 57.918 18.2621H57.771V17.9514H57.805C58.2968 17.9514 59.135 17.9822 59.8106 17.9822C60.4883 17.9822 61.3243 17.9514 61.8731 17.9514H61.9094L61.9077 17.9872C61.9021 18.1084 61.8999 18.2514 61.8999 18.4035C61.8999 18.6823 61.9077 18.9868 61.9239 19.2165L61.925 19.2456L61.8982 19.2535L61.6149 19.3272L61.6133 19.2859C61.5658 18.7628 61.4959 18.3834 60.6662 18.3756H59.5804L59.5793 20.4158H60.5047C60.9686 20.4113 61.0517 20.1738 61.1065 19.7396L61.1094 19.7078H61.4184L61.4178 19.744C61.4022 20.0581 61.3921 20.3721 61.3921 20.6862C61.3921 20.9913 61.4022 21.2969 61.4178 21.6037L61.4184 21.6323L61.3893 21.6389L61.1094 21.6948L61.1065 21.6568C61.0512 21.1651 61.0472 20.8957 60.5119 20.8896L59.5804 20.889V22.7325C59.5811 23.222 60.0034 23.2192 60.5287 23.222C61.4987 23.2164 61.8877 23.1695 62.1308 22.2642L62.1387 22.2318L62.1727 22.238L62.4309 22.3044L62.423 22.338C62.3192 22.7649 62.2224 23.1907 62.1503 23.6176L62.1436 23.6461H62.1162ZM62.0866 23.5757C62.1564 23.1694 62.2485 22.7616 62.3476 22.3558L62.1883 22.3156C61.9469 23.2175 61.4796 23.2979 60.5286 23.2919C60.0212 23.2919 59.5127 23.2919 59.5104 22.7324V20.8202H60.5119C61.0745 20.8141 61.1322 21.1538 61.1718 21.6126L61.3462 21.5763C61.3307 21.2799 61.3231 20.983 61.3233 20.6861C61.3233 20.3827 61.3305 20.081 61.3462 19.7775H61.1718C61.1271 20.1972 60.9958 20.4922 60.5046 20.4866H59.5105V18.3051H60.6662C61.5044 18.2994 61.6434 18.732 61.6792 19.2388L61.8531 19.1919C61.8391 18.9645 61.8295 18.6728 61.8295 18.4034C61.8295 18.2654 61.8329 18.1352 61.8374 18.0212C61.2898 18.0234 60.4739 18.0525 59.8106 18.0525C59.1484 18.0525 58.3332 18.0234 57.8397 18.0212V18.1922H57.9179C58.2051 18.1922 58.5483 18.2425 58.5493 18.6879V22.9102C58.5482 23.3544 58.2051 23.4036 57.9179 23.4058H57.8397V23.5757C58.3097 23.5751 59.2407 23.545 59.9486 23.545C60.6594 23.545 61.5669 23.5751 62.0866 23.5757V23.5757ZM63.4776 18.8399C63.4776 18.252 63.1557 18.228 62.9048 18.228H62.7601V17.9854C63.0182 17.9854 63.5172 18.0179 64.009 18.0179C64.4924 18.0179 64.8796 17.9854 65.3061 17.9854C66.3207 17.9854 67.2244 18.2598 67.2244 19.4054C67.2244 20.129 66.7411 20.5727 66.1045 20.8236L67.482 22.8856C67.7077 23.2264 67.8681 23.322 68.2637 23.3689V23.612C67.9977 23.612 67.7395 23.5801 67.4741 23.5801C67.2244 23.5801 66.9656 23.612 66.7169 23.612C66.0966 22.7978 65.5636 21.9272 65.0399 20.9996H64.5097V22.7252C64.5097 23.3466 64.7986 23.3689 65.169 23.3689H65.3143V23.612C64.8539 23.612 64.3885 23.5802 63.9286 23.5802C63.5413 23.5802 63.1624 23.612 62.7601 23.612V23.3689H62.9048C63.2043 23.3689 63.4776 23.2337 63.4776 22.9347V18.8399ZM64.5096 20.7096H64.9031C65.7094 20.7096 66.1435 20.4034 66.1435 19.4523C66.1435 18.7359 65.6848 18.276 64.9668 18.276C64.7248 18.276 64.622 18.3012 64.5095 18.3084V20.7096H64.5096Z" fill="#211E1F"/>
<path d="M68.2635 23.6462C67.9936 23.6462 67.7371 23.6138 67.4723 23.6138C67.2264 23.6138 66.9694 23.6462 66.6883 23.6327C66.0702 22.8219 65.5405 21.9564 65.0197 21.0355H64.5436V22.7242C64.552 23.3305 64.7956 23.3255 65.1684 23.3344H65.3488V23.6462H65.313C64.8526 23.6462 64.3849 23.6138 63.9273 23.6138C63.5422 23.6138 63.1645 23.6462 62.7599 23.6462H62.7246V23.3344H62.9046C63.1951 23.3327 63.4399 23.2064 63.441 22.9349V18.84C63.435 18.2678 63.155 18.2711 62.9046 18.2628H62.7246V17.9504H62.7599C63.0208 17.9504 63.5182 17.9822 64.0088 17.9822C64.4899 17.9822 64.8772 17.9504 65.3064 17.9504C66.3217 17.9527 67.2571 18.2332 67.2599 19.4033C67.2599 20.1314 66.7788 20.5857 66.1568 20.8394L67.5108 22.8667C67.736 23.2009 67.8763 23.2842 68.2686 23.3344L68.2981 23.3389V23.6462H68.2635V23.6462ZM64.5085 20.965H65.0594L65.0689 20.9829C65.5942 21.9088 66.1233 22.7783 66.7168 23.5774C66.9626 23.5774 67.2213 23.5444 67.4723 23.5444C67.7298 23.5444 67.9779 23.5723 68.2288 23.5763V23.3997C67.8505 23.3527 67.6734 23.2399 67.4533 22.9051L66.0512 20.8068L66.0909 20.7906C66.7212 20.5425 67.1878 20.1117 67.1884 19.4031C67.1878 18.2849 66.3194 18.0257 65.3064 18.0212C64.8811 18.0212 64.4944 18.0531 64.0088 18.0531C63.5355 18.0531 63.0577 18.0235 62.794 18.0212V18.1922H62.9046C63.1549 18.1928 63.5114 18.2341 63.5114 18.8399V22.9348C63.5114 23.2583 63.208 23.4058 62.9046 23.4064H62.794V23.5762C63.1818 23.5751 63.5489 23.5444 63.9273 23.5444C64.3781 23.5444 64.8325 23.5751 65.2784 23.5762V23.4064H65.1683C64.8006 23.4058 64.4732 23.36 64.4732 22.7241V20.965H64.5084H64.5085ZM64.5085 20.7437H64.4732V18.2761L64.5039 18.2733C64.614 18.2649 64.723 18.242 64.9666 18.242C65.7009 18.242 66.1781 18.7192 66.1792 19.4539C66.177 20.4162 65.7154 20.7431 64.9029 20.7436H64.5085V20.7437ZM64.9029 20.6745C65.7008 20.6677 66.1021 20.3906 66.1105 19.454C66.106 18.7499 65.6685 18.3129 64.9666 18.3101C64.7486 18.3101 64.6464 18.3303 64.5436 18.3393V20.6745H64.9029ZM73.7347 22.0234L73.7493 22.0077V18.9857C73.7493 18.3241 73.2905 18.228 73.0491 18.228H72.8726V17.986C73.2509 17.986 73.6208 18.0178 74.0002 18.0178C74.331 18.0178 74.6602 17.986 74.9926 17.986V18.228H74.8714C74.5328 18.228 74.1539 18.2922 74.1539 19.2512V22.9191C74.1539 23.2008 74.1618 23.4824 74.2014 23.7322H73.8958L69.7461 19.1059V22.4269C69.7461 23.1282 69.883 23.369 70.5033 23.369H70.6402V23.6121C70.2943 23.6121 69.9473 23.5802 69.6014 23.5802C69.2375 23.5802 68.8671 23.6121 68.505 23.6121V23.369H68.6167C69.1734 23.369 69.3426 22.9912 69.3426 22.347V18.9523C69.3426 18.5013 68.9721 18.228 68.6101 18.228H68.505V17.9861C68.8101 17.9861 69.1259 18.0179 69.4315 18.0179C69.6718 18.0179 69.9065 17.9861 70.1484 17.9861L73.7347 22.0234Z" fill="#211E1F"/>
<path d="M74.2017 23.7667L73.8698 23.7556L69.7801 19.1969V22.4262C69.7896 23.1275 69.8957 23.3264 70.5036 23.3343H70.6741V23.6461H70.6389C70.2903 23.6461 69.9449 23.6131 69.5995 23.6131C69.2397 23.6131 68.8675 23.6461 68.5048 23.6461H68.4685V23.3343H68.6166C69.1486 23.3321 69.3011 22.9895 69.3061 22.3447V18.9522C69.3056 18.523 68.9542 18.2626 68.6099 18.262H68.4685V17.9503H68.5048C68.8122 17.9503 69.1274 17.9821 69.4313 17.9821C69.6682 17.9821 69.9018 17.9503 70.1723 17.9614L73.7146 21.9501V18.9851C73.7123 18.3447 73.2831 18.2654 73.049 18.2621H72.8361V17.9503H72.8713C73.2524 17.9503 73.6234 17.9821 74.0001 17.9821C74.3287 17.9821 74.6589 17.9503 74.9908 17.9503H75.026V18.2621H74.8712C74.5387 18.271 74.1961 18.3006 74.1878 19.2512V22.9185C74.1878 23.2001 74.1951 23.4795 74.2359 23.7276L74.2403 23.7667H74.2017ZM73.8956 23.6963H74.1604C74.1252 23.4544 74.1173 23.1862 74.1173 22.9185V19.2511C74.1179 18.2838 74.5259 18.1944 74.8712 18.1916H74.9555V18.0212C74.6393 18.0234 74.3202 18.0525 74 18.0525C73.6301 18.0525 73.2707 18.0234 72.9059 18.0212V18.1916H73.049C73.297 18.1944 73.7855 18.3028 73.7855 18.9851L73.7743 22.0317L73.7586 22.0484L73.7341 22.0741L70.1477 18.0212C69.9085 18.0212 69.6749 18.0525 69.4314 18.0525C69.133 18.0525 68.8318 18.0235 68.5384 18.0212V18.1917H68.6099C68.9882 18.1945 69.3766 18.48 69.3766 18.9522V22.3446C69.3766 22.9917 69.1944 23.4035 68.6166 23.4058L68.5384 23.4052V23.5756C68.8865 23.574 69.2458 23.5449 69.5996 23.5449C69.9377 23.5449 70.2724 23.574 70.6054 23.5756V23.4058H70.5037C69.869 23.4052 69.7103 23.1275 69.7091 22.4262V19.0164L73.8956 23.6963ZM73.7346 22.0227L73.7591 21.9998L73.7346 22.0227ZM73.7145 22.0076V22.0048L73.7083 21.9987L73.7145 22.0076ZM76.2884 22.4592C76.2069 22.7324 76.1097 22.9436 76.1097 23.0872C76.1097 23.3298 76.4489 23.3689 76.7138 23.3689H76.8037V23.612C76.4808 23.5946 76.1516 23.5801 75.8269 23.5801C75.537 23.5801 75.2486 23.5947 74.9581 23.612V23.3689H75.0066C75.3206 23.3689 75.5873 23.1839 75.7062 22.8447L76.9971 19.1465C77.101 18.8481 77.2474 18.4453 77.2961 18.1464C77.5526 18.0586 77.8755 17.8977 78.0281 17.8005C78.0532 17.7921 78.0672 17.7837 78.0924 17.7837C78.1164 17.7837 78.132 17.7837 78.1499 17.8088C78.1734 17.8725 78.1968 17.9457 78.2226 18.01L79.705 22.2256C79.8017 22.5072 79.8972 22.8051 80.0018 23.0476C80.0991 23.2733 80.2689 23.3689 80.5354 23.3689H80.5829V23.612C80.2204 23.5946 79.8571 23.5802 79.4715 23.5802C79.0765 23.5802 78.6724 23.5947 78.2617 23.612V23.3689H78.3511C78.5356 23.3689 78.8508 23.3376 78.8508 23.1359C78.8508 23.0314 78.7781 22.814 78.6881 22.5553L78.3746 21.6204H76.5457L76.2884 22.4592ZM77.4642 18.8884H77.448L76.6986 21.1695H78.2046L77.4642 18.8884Z" fill="#211E1F"/>
<path d="M80.5806 23.6461C80.218 23.6299 79.8553 23.6131 79.4714 23.6131C79.0763 23.6131 78.6751 23.6299 78.2627 23.6461L78.2264 23.6484V23.3332H78.3505C78.5371 23.3332 78.8142 23.2907 78.8142 23.136C78.8165 23.0443 78.7438 22.823 78.655 22.5666L78.3482 21.6552H76.5707L76.3204 22.4693C76.2387 22.7442 76.1422 22.9571 76.1427 23.0884C76.1454 23.2852 76.4466 23.3332 76.7137 23.3332H76.8378V23.6484L76.8015 23.6461C76.4791 23.6299 76.1499 23.6131 75.8286 23.6131C75.5397 23.6131 75.2492 23.6299 74.9603 23.6461L74.9229 23.6484V23.3332H75.0061C75.3061 23.3321 75.5565 23.1617 75.6728 22.8337L76.963 19.135C77.0687 18.836 77.2139 18.4343 77.2838 18.113C77.5364 18.0275 77.8598 17.8654 78.0152 17.7671C78.0376 17.7598 78.06 17.7486 78.093 17.7486C78.1125 17.7481 78.1561 17.7531 78.1818 17.7956C78.2047 17.8621 78.2298 17.9336 78.2544 17.999L79.7386 22.2141C79.8337 22.4968 79.9297 22.7947 80.0349 23.0327C80.1282 23.2479 80.2763 23.3322 80.5355 23.3333H80.6177V23.6485L80.5806 23.6461ZM78.2968 23.574C78.6958 23.5601 79.0864 23.5444 79.4714 23.5444C79.8458 23.5444 80.1961 23.5601 80.5464 23.574V23.4058H80.5353C80.2593 23.4075 80.0687 23.2991 79.9698 23.0616C79.8648 22.8169 79.7664 22.5179 79.672 22.2357L78.1884 18.0213C78.1638 17.957 78.1404 17.8838 78.1191 17.8268C78.1124 17.819 78.114 17.819 78.1074 17.819H78.0928C78.076 17.819 78.0665 17.824 78.0458 17.8296C77.8905 17.9307 77.567 18.0889 77.3283 18.152C77.2786 18.4571 77.1339 18.8595 77.0289 19.1579L75.7391 22.8571C75.6163 23.2069 75.334 23.4064 75.0061 23.4058H74.9932V23.574C75.2692 23.5601 75.5486 23.5444 75.8286 23.5444C76.1398 23.5444 76.4583 23.5601 76.7657 23.574V23.4058H76.7137C76.4517 23.4024 76.085 23.3728 76.075 23.0884C76.0755 22.9275 76.1745 22.7213 76.2532 22.4492L76.2884 22.4597L76.2532 22.448L76.5186 21.5863H78.3974L78.7208 22.5442C78.8114 22.8029 78.8846 23.0175 78.8846 23.1359C78.8735 23.3835 78.5331 23.4008 78.3504 23.4058H78.2967V23.574H78.2968ZM76.6495 21.2041L77.4211 18.8533H77.4648V18.8885L77.4558 18.8901L77.4648 18.8885V18.8533H77.4888L78.2537 21.2041H76.6495ZM76.7461 21.1343H78.1565L77.4552 18.9745L76.7461 21.1343ZM77.4295 18.8986L77.448 18.8924L77.4295 18.8986ZM80.9372 18.3883C80.3326 18.3883 80.3086 18.5337 80.1872 19.1215H79.9452C79.9771 18.8963 80.0179 18.6711 80.0431 18.4364C80.0754 18.2106 80.0901 17.9859 80.0901 17.7524H80.2845C80.3487 17.9944 80.5511 17.986 80.7673 17.986H84.9265C85.1428 17.986 85.3439 17.9782 85.3607 17.7357L85.5534 17.7681C85.5226 17.986 85.4909 18.2034 85.4662 18.4213C85.4489 18.6387 85.4489 18.8566 85.4489 19.0734L85.2075 19.1634C85.1924 18.8656 85.1522 18.3883 84.6119 18.3883H83.2903V22.6766C83.2903 23.2979 83.5731 23.369 83.9587 23.369H84.1117V23.612C83.7977 23.612 83.2344 23.5802 82.7985 23.5802C82.3158 23.5802 81.7508 23.612 81.4368 23.612V23.369H81.5893C82.0335 23.369 82.2593 23.3292 82.2593 22.6933V18.3883H80.9372Z" fill="#211E1F"/>
<path d="M84.1117 23.6462C83.7954 23.6462 83.231 23.6138 82.7985 23.6138C82.3167 23.6138 81.7524 23.6462 81.4366 23.6462H81.4009V23.3344H81.5892C82.0334 23.3238 82.2117 23.3182 82.2229 22.6934L82.2217 18.4237H80.9371V18.3527H82.2927V22.6934C82.2927 23.3399 82.0318 23.4036 81.5892 23.4053H81.4708V23.5774C81.7898 23.574 82.3307 23.545 82.7985 23.545C83.2192 23.545 83.7579 23.5741 84.0764 23.5774V23.4053H83.9574C83.5701 23.4036 83.2561 23.3103 83.255 22.6766V18.3527H84.6117C85.1526 18.3549 85.2236 18.8148 85.2388 19.1137L85.4148 19.0495C85.4148 18.8394 85.4153 18.6287 85.4309 18.4175C85.4533 18.2102 85.4834 18.0034 85.5131 17.7977L85.3913 17.777C85.3544 18.0117 85.127 18.0246 84.9264 18.0212H80.7264C80.5364 18.0235 80.3308 18.0123 80.2575 17.786H80.1257C80.1234 18.0095 80.1083 18.2264 80.0765 18.4409C80.0553 18.6628 80.0155 18.8762 79.9854 19.088H80.1581C80.2648 18.5264 80.3347 18.3442 80.937 18.3527V18.4236C80.3397 18.4337 80.3531 18.5348 80.2211 19.1305L80.215 19.1579H79.9043L79.9093 19.1176C79.9429 18.8902 79.9831 18.6655 80.0066 18.4325C80.0395 18.2073 80.0552 17.9838 80.0552 17.7524V17.7172H80.3099L80.3167 17.7424C80.3731 17.9458 80.52 17.9469 80.7263 17.9503L80.767 17.9514H84.9263C85.1487 17.947 85.3112 17.9436 85.3252 17.7335L85.3275 17.6949L85.3655 17.7028L85.594 17.7386L85.5879 17.7738C85.555 17.9895 85.5242 18.2074 85.4997 18.4237C85.4834 18.6383 85.4834 18.8567 85.4834 19.0736V19.0987L85.4606 19.1076L85.175 19.2116L85.1734 19.1646C85.1526 18.8618 85.1208 18.4236 84.6117 18.4236H83.3249V22.6766C83.3333 23.2846 83.574 23.3265 83.9574 23.3343H84.1462V23.6462L84.1117 23.6462ZM85.8509 23.369H85.9639C86.2549 23.369 86.5594 23.3299 86.5594 22.9102V18.6879C86.5594 18.2677 86.2549 18.228 85.9639 18.228H85.8509V17.9861C86.1656 17.9861 86.6484 18.0179 87.0423 18.0179C87.4468 18.0179 87.9303 17.9861 88.3091 17.9861V18.228H88.1962C87.9062 18.228 87.5989 18.2677 87.5989 18.6879V22.9102C87.5989 23.3299 87.9062 23.369 88.1962 23.369H88.3091V23.6121C87.9218 23.6121 87.4379 23.5803 87.0362 23.5803C86.6406 23.5803 86.1656 23.6121 85.8509 23.6121V23.369Z" fill="#211E1F"/>
<path d="M88.3095 23.6462C87.92 23.6462 87.4377 23.6132 87.036 23.6132C86.642 23.6132 86.166 23.6462 85.8513 23.6462H85.8162V23.3344H85.9642C86.2553 23.3299 86.5225 23.3048 86.5236 22.9102V18.6879C86.5225 18.2945 86.2553 18.2676 85.9642 18.2621H85.8162V17.9515H85.8513C86.166 17.9515 86.6499 17.9822 87.0427 17.9822C87.4445 17.9822 87.9278 17.9515 88.3095 17.9515H88.3436V18.2621H88.1966C87.9021 18.2677 87.6378 18.2945 87.6339 18.6879V22.9102C87.6378 23.3048 87.9022 23.3299 88.1966 23.3344H88.3436V23.6462H88.3095ZM88.2732 23.5758V23.4053H88.1966C87.9077 23.4053 87.5658 23.3545 87.5658 22.9102V18.6879C87.5658 18.2425 87.9077 18.1923 88.1966 18.1923H88.2732V18.0213C87.901 18.0235 87.4356 18.0526 87.0427 18.0526C86.661 18.0526 86.1989 18.0235 85.8866 18.0213V18.1923H85.9643C86.2509 18.1923 86.5941 18.2425 86.5951 18.6879V22.9102C86.594 23.3544 86.2509 23.4053 85.9643 23.4053H85.8866V23.5758C86.1973 23.5724 86.6533 23.545 87.036 23.545C87.4266 23.545 87.8932 23.5741 88.2731 23.5758H88.2732ZM91.5228 17.8654C93.2406 17.8654 94.6096 18.9304 94.6096 20.6465C94.6096 22.5006 93.2802 23.7327 91.5647 23.7327C89.8548 23.7327 88.5506 22.5721 88.5506 20.8393C88.5506 19.1634 89.847 17.8654 91.5228 17.8654ZM91.6447 23.3779C93.2082 23.3779 93.4803 21.9988 93.4803 20.8236C93.4803 19.6457 92.8456 18.2196 91.5072 18.2196C90.0968 18.2196 89.6783 19.4769 89.6783 20.556C89.6783 21.9988 90.3388 23.3779 91.6447 23.3779Z" fill="#211E1F"/>
<path d="M88.5144 20.8392C88.5178 19.1438 89.8299 17.8323 91.5224 17.8301V17.8993C89.8662 17.8993 88.5843 19.1807 88.5826 20.8392C88.5865 22.5524 89.8723 23.6957 91.5644 23.6963C93.2631 23.6957 94.5736 22.4809 94.5763 20.6447C94.5746 18.9505 93.2262 17.9015 91.5225 17.8993V17.8301C93.2536 17.8312 94.6411 18.9069 94.6445 20.6447C94.6429 22.5183 93.296 23.7634 91.5644 23.7667C89.841 23.7633 88.5178 22.591 88.5145 20.8392H88.5144V20.8392ZM89.6433 20.5559C89.6455 19.4719 90.069 18.1832 91.5074 18.1832C92.8753 18.1866 93.514 19.6395 93.5162 20.8236C93.514 21.9987 93.2375 23.4114 91.6449 23.4114V23.3432C93.1771 23.341 93.4426 21.9987 93.4464 20.8236C93.4464 19.6552 92.8172 18.2565 91.5074 18.2548C90.1249 18.2564 89.7158 19.4824 89.7131 20.5559C89.7143 21.9915 90.3686 23.3398 91.6449 23.3432V23.4114C90.3071 23.4097 89.6455 22.0072 89.6433 20.5559ZM100.04 22.0233L100.056 22.0077V18.9857C100.056 18.3241 99.5958 18.2279 99.3538 18.2279H99.1794V17.9859C99.5572 17.9859 99.9277 18.0178 100.305 18.0178C100.637 18.0178 100.967 17.9859 101.298 17.9859V18.2279H101.176C100.838 18.2279 100.459 18.2921 100.459 19.2511V22.9191C100.459 23.2007 100.467 23.4823 100.508 23.7322H100.202L96.0512 19.1059V22.4268C96.0512 23.1281 96.1876 23.3689 96.8079 23.3689H96.9458V23.612C96.5989 23.612 96.253 23.5802 95.9065 23.5802C95.5438 23.5802 95.1723 23.612 94.8096 23.612V23.3689H94.923C95.4802 23.3689 95.6472 22.9911 95.6472 22.3469V18.9522C95.6472 18.5013 95.2783 18.228 94.9146 18.228H94.8096V17.986C95.1158 17.986 95.4304 18.0178 95.7361 18.0178C95.9781 18.0178 96.2111 17.986 96.4536 17.986L100.04 22.0233Z" fill="#211E1F"/>
<path d="M100.508 23.7667L100.175 23.755L96.0862 19.1969V22.4268C96.095 23.1275 96.2017 23.3259 96.8069 23.3332H96.9813V23.6461H96.9461C96.5968 23.6461 96.251 23.6137 95.9067 23.6137C95.5451 23.6137 95.1752 23.6461 94.8092 23.6461H94.7756V23.3332H94.9232C95.4546 23.3316 95.6072 22.9896 95.6138 22.3469V18.9522C95.6127 18.523 95.2612 18.2626 94.9148 18.2621H94.7756V17.9514H94.8092C95.1182 17.9514 95.4322 17.9822 95.7362 17.9822C95.9754 17.9822 96.2079 17.9514 96.4805 17.9632L100.021 21.9502V18.9863C100.019 18.3449 99.5897 18.2677 99.3539 18.2621H99.1421V17.9515H99.1785C99.5578 17.9515 99.9294 17.9822 100.304 17.9822C100.635 17.9822 100.964 17.9515 101.298 17.9515H101.333V18.2621H101.176C100.845 18.2716 100.502 18.3018 100.495 19.2512V22.9186C100.495 23.2002 100.501 23.4813 100.54 23.7277L100.547 23.7668H100.508V23.7667ZM100.202 23.6963H100.466C100.431 23.4544 100.425 23.1862 100.425 22.9185V19.2511C100.425 18.2821 100.831 18.1944 101.176 18.1916H101.263V18.0212C100.946 18.0234 100.627 18.0525 100.305 18.0525C99.938 18.0525 99.5776 18.0234 99.2127 18.0212V18.1916H99.354C99.6039 18.1944 100.09 18.3045 100.09 18.9862L100.081 22.0317L100.066 22.0485L100.04 22.0741L96.454 18.0212C96.2165 18.0212 95.9812 18.0525 95.7365 18.0525C95.4397 18.0525 95.1374 18.0235 94.844 18.0212V18.1917H94.915C95.2934 18.1945 95.6828 18.48 95.6828 18.9522V22.3469C95.6828 22.9912 95.5029 23.4036 94.9234 23.4058L94.844 23.4052V23.5757C95.1938 23.574 95.5526 23.545 95.9069 23.545C96.2427 23.545 96.5763 23.574 96.9111 23.5757V23.4058H96.8071C96.1746 23.4052 96.0165 23.1275 96.0165 22.4267V19.0153L100.202 23.6963ZM100.04 22.0227L100.066 21.9998L100.04 22.0227ZM100.021 22.0076V22.0048L100.014 21.9987L100.021 22.0076ZM102.593 22.4592C102.514 22.7324 102.416 22.9436 102.416 23.0872C102.416 23.3298 102.756 23.3689 103.02 23.3689H103.11V23.612C102.787 23.5946 102.457 23.5801 102.134 23.5801C101.843 23.5801 101.554 23.5947 101.265 23.612V23.3689H101.311C101.627 23.3689 101.894 23.1839 102.013 22.8447L103.304 19.1465C103.408 18.8481 103.554 18.4453 103.601 18.1464C103.859 18.0586 104.181 17.8977 104.335 17.8005C104.358 17.7921 104.374 17.7837 104.399 17.7837C104.423 17.7837 104.438 17.7837 104.454 17.8088C104.479 17.8725 104.504 17.9457 104.528 18.01L106.01 22.2256C106.107 22.5072 106.203 22.8051 106.309 23.0476C106.406 23.2733 106.576 23.3689 106.84 23.3689H106.89V23.612C106.526 23.5946 106.164 23.5802 105.777 23.5802C105.383 23.5802 104.979 23.5947 104.568 23.612V23.3689H104.657C104.841 23.3689 105.157 23.3376 105.157 23.1359C105.157 23.0314 105.084 22.814 104.994 22.5553L104.681 21.6204H102.852L102.593 22.4592ZM103.771 18.8884H103.755L103.004 21.1695H104.512L103.771 18.8884Z" fill="#211E1F"/>
<path d="M106.886 23.6461C106.524 23.6316 106.161 23.6137 105.776 23.6137C105.384 23.6137 104.98 23.6316 104.569 23.6461L104.533 23.6484V23.3343H104.655C104.843 23.3343 105.121 23.2907 105.122 23.1359C105.123 23.0442 105.051 22.8247 104.961 22.5665L104.654 21.6551H102.876L102.626 22.4692C102.546 22.7453 102.45 22.9571 102.452 23.0873C102.452 23.2851 102.753 23.3343 103.02 23.3343H103.143V23.6484L103.107 23.6461C102.785 23.6316 102.455 23.6137 102.134 23.6137C101.845 23.6137 101.556 23.6316 101.265 23.6461L101.23 23.6484V23.3343H101.311C101.612 23.3331 101.863 23.1605 101.981 22.8336L103.27 19.135C103.373 18.836 103.518 18.4342 103.59 18.114C103.843 18.0263 104.166 17.8654 104.323 17.767C104.344 17.7597 104.366 17.7502 104.399 17.7502C104.42 17.748 104.461 17.753 104.487 17.7971C104.511 17.8603 104.535 17.9335 104.562 17.9989L106.043 22.2139C106.14 22.4967 106.236 22.7945 106.341 23.0342C106.435 23.2477 106.582 23.3321 106.839 23.3343H106.923V23.6484L106.886 23.6461ZM104.602 23.5751C105.001 23.56 105.393 23.5444 105.776 23.5444C106.151 23.5444 106.503 23.56 106.854 23.574L106.853 23.4057H106.839C106.567 23.4063 106.376 23.2991 106.276 23.0616C106.17 22.8168 106.074 22.5179 105.978 22.2367L104.494 18.0212C104.47 17.9569 104.446 17.8837 104.426 17.829C104.42 17.8189 104.42 17.8189 104.414 17.8189H104.399C104.382 17.8189 104.373 17.8245 104.354 17.8301C104.197 17.929 103.874 18.0899 103.635 18.152C103.585 18.4571 103.439 18.8588 103.335 19.1578L102.045 22.8571C101.922 23.2069 101.641 23.4063 101.311 23.4057H101.299V23.574C101.576 23.56 101.854 23.5444 102.134 23.5444C102.446 23.5444 102.764 23.56 103.075 23.574V23.4057H103.02C102.758 23.4024 102.39 23.3739 102.381 23.0873C102.382 22.9275 102.482 22.7224 102.56 22.4491L102.593 22.4597L102.56 22.448L102.825 21.5863H104.705L105.028 22.5441C105.116 22.8034 105.19 23.0174 105.19 23.1359C105.178 23.3834 104.84 23.4007 104.655 23.4057H104.602V23.5751H104.602ZM102.956 21.2036L103.729 18.8533H103.771V18.8885L103.763 18.8901L103.771 18.8885V18.8533H103.796L104.558 21.2036H102.956ZM103.053 21.1343H104.462L103.761 18.9756L103.053 21.1343ZM103.737 18.8986L103.754 18.8924L103.737 18.8986ZM108.92 22.8218C108.92 23.1443 109.144 23.2404 109.402 23.2734C109.732 23.2979 110.095 23.2979 110.467 23.2572C110.804 23.2164 111.095 23.0231 111.239 22.8218C111.368 22.6441 111.44 22.4184 111.489 22.2413H111.723C111.634 22.7006 111.521 23.1532 111.424 23.612C110.717 23.612 110.006 23.5801 109.298 23.5801C108.588 23.5801 107.88 23.612 107.171 23.612V23.3689H107.281C107.573 23.3689 107.888 23.3298 107.888 22.8297V18.6879C107.888 18.2676 107.573 18.228 107.281 18.228H107.171V17.986C107.596 17.986 108.016 18.0179 108.442 18.0179C108.855 18.0179 109.257 17.986 109.668 17.986V18.228H109.465C109.16 18.228 108.92 18.2369 108.92 18.6627V22.8218Z" fill="#211E1F"/>
<path d="M111.424 23.6462C110.714 23.6462 110.005 23.6138 109.298 23.6138C108.588 23.6138 107.879 23.6462 107.169 23.6462H107.135V23.3344H107.281C107.573 23.3277 107.85 23.3076 107.853 22.8298V18.6864C107.849 18.2946 107.575 18.2678 107.281 18.2622H107.135V17.9515H107.169C107.598 17.9515 108.017 17.9823 108.443 17.9823C108.852 17.9823 109.254 17.9515 109.668 17.9515H109.701V18.2622H109.466C109.154 18.2711 108.959 18.2566 108.953 18.6629V22.822C108.955 23.1221 109.152 23.2031 109.404 23.2383C109.546 23.2484 109.695 23.2545 109.851 23.2545C110.048 23.2545 110.253 23.245 110.461 23.2227C110.789 23.1842 111.072 22.9947 111.211 22.8025C111.335 22.6304 111.406 22.4091 111.454 22.233L111.462 22.2063H111.765L111.758 22.2487C111.667 22.7098 111.556 23.1601 111.458 23.6189L111.452 23.6463H111.424V23.6462ZM111.395 23.5758C111.488 23.1388 111.594 22.7113 111.681 22.2754H111.515C111.465 22.4509 111.393 22.6671 111.267 22.8431C111.116 23.0521 110.818 23.2488 110.469 23.2919C110.257 23.3136 110.048 23.3248 109.851 23.3248C109.695 23.3248 109.543 23.3176 109.397 23.3074C109.135 23.2784 108.881 23.1666 108.882 22.8219V18.6628C108.882 18.2152 109.165 18.1923 109.466 18.1923H109.633V18.0213C109.235 18.0235 108.844 18.0531 108.443 18.0531C108.025 18.0531 107.618 18.0235 107.204 18.0213V18.1923H107.281C107.569 18.1923 107.921 18.2426 107.921 18.6862V22.8297C107.921 23.3511 107.571 23.4053 107.281 23.4053H107.204V23.5757C107.901 23.5752 108.598 23.545 109.298 23.545C109.998 23.545 110.698 23.5752 111.395 23.5758V23.5758ZM111.625 17.757C112.11 17.757 112.473 18.1302 112.473 18.6086C112.473 19.0847 112.11 19.4546 111.625 19.4546C111.139 19.4546 110.776 19.0847 110.776 18.6086C110.776 18.1303 111.139 17.757 111.625 17.757ZM111.625 19.2964C112.004 19.2964 112.296 18.9723 112.296 18.6086C112.296 18.2426 112.009 17.9157 111.625 17.9157C111.243 17.9157 110.951 18.2426 110.951 18.6086C110.951 18.9723 111.243 19.2964 111.625 19.2964ZM111.202 19.0556V19.0137C111.307 18.9992 111.326 19.0025 111.326 18.9377V18.3096C111.326 18.2214 111.316 18.1912 111.206 18.1956V18.1526H111.64C111.79 18.1526 111.927 18.2236 111.927 18.3778C111.927 18.5041 111.843 18.5974 111.726 18.6337L111.865 18.8281C111.931 18.9164 112.004 18.9992 112.053 19.0282V19.0556H111.887C111.808 19.0556 111.739 18.8885 111.582 18.6644H111.488V18.9466C111.488 19.0025 111.508 18.9991 111.612 19.0136V19.0556H111.202V19.0556ZM111.488 18.6086H111.588C111.698 18.6086 111.749 18.5253 111.749 18.3918C111.749 18.2565 111.67 18.209 111.583 18.209H111.488V18.6086Z" fill="#211E1F"/>
<path d="M24.6122 28.1663C32.3097 28.2031 39.3355 21.8887 39.3355 14.2069C39.3355 5.80649 32.3097 1.46323e-05 24.6122 0.00280863H17.9877C10.198 1.46323e-05 3.78638 5.80822 3.78638 14.2069C3.78638 21.8903 10.198 28.2031 17.9877 28.1663H24.6122Z" fill="white"/>
<path d="M18.0192 1.16675C10.9012 1.16898 5.13327 6.93858 5.13159 14.0594C5.13327 21.179 10.9011 26.948 18.0192 26.9503C25.1388 26.948 30.9079 21.179 30.9089 14.0594C30.9078 6.93858 25.1388 1.16898 18.0192 1.16675V1.16675ZM9.85009 14.0594C9.85679 10.5798 12.03 7.61255 15.0944 6.43342V21.6836C12.03 20.5051 9.85674 17.5395 9.85009 14.0594V14.0594ZM20.9428 21.6869V6.43292C24.0084 7.60919 26.1849 10.5781 26.1905 14.0594C26.1849 17.5418 24.0084 20.5084 20.9428 21.6869Z" fill="#9E9E9E"/>
<path d="M43.8498 6.06188C43.8498 4.72965 43.1552 4.81738 42.4891 4.80291V4.41789C43.0663 4.44639 43.6581 4.44639 44.2365 4.44639C44.8585 4.44639 45.7028 4.41789 46.7991 4.41789C50.6336 4.41789 52.7218 6.97943 52.7218 9.60237C52.7218 11.0692 51.8636 14.7567 46.6209 14.7567C45.8659 14.7567 45.1691 14.7276 44.4734 14.7276C43.8073 14.7276 43.1552 14.7422 42.489 14.7567V14.3723C43.377 14.2828 43.8073 14.2533 43.8498 13.2457V6.06188H43.8498ZM45.3016 13.0094C45.3016 14.1499 46.1169 14.2829 46.8422 14.2829C50.0419 14.2829 51.0924 11.8683 51.0924 9.66105C51.0924 6.8922 49.3149 4.89282 46.4572 4.89282C45.8493 4.89282 45.5699 4.9364 45.3016 4.95211L45.3016 13.0094ZM53.2415 14.3723H53.522C53.9361 14.3723 54.2329 14.3723 54.2329 13.8822V9.86898C54.2329 9.21803 54.011 9.12745 53.4628 8.83296V8.59547C54.1585 8.38648 54.989 8.10708 55.047 8.06238C55.1515 8.00315 55.2398 7.9875 55.3141 7.9875C55.3874 7.9875 55.4181 8.07691 55.4181 8.19593V13.8822C55.4181 14.3723 55.7439 14.3723 56.1585 14.3723H56.4099V14.7573C55.9059 14.7573 55.3873 14.7278 54.8554 14.7278C54.3223 14.7278 53.7886 14.7423 53.2416 14.7573V14.3723H53.2415ZM54.8257 5.70699C54.4402 5.70699 54.1004 5.35165 54.1004 4.96658C54.1004 4.59554 54.4558 4.25411 54.8257 4.25411C55.2096 4.25411 55.5516 4.56654 55.5516 4.96658C55.5516 5.36668 55.2247 5.70699 54.8257 5.70699ZM57.8169 9.95727C57.8169 9.40964 57.6531 9.26212 56.9586 8.98049V8.69947C57.595 8.49215 58.2014 8.29937 58.9126 7.98756C58.9568 7.98756 59.0004 8.01773 59.0004 8.13564V9.09895C59.8459 8.49215 60.5718 7.9875 61.5653 7.9875C62.8225 7.9875 63.2667 8.90611 63.2667 10.0611V13.8823C63.2667 14.3723 63.5925 14.3723 64.0077 14.3723H64.2743V14.7573C63.7546 14.7573 63.2366 14.7278 62.7046 14.7278C62.1709 14.7278 61.6372 14.7423 61.1047 14.7573V14.3723H61.3707C61.7864 14.3723 62.081 14.3723 62.081 13.8823V10.0472C62.081 9.20171 61.5653 8.78764 60.7197 8.78764C60.2465 8.78764 59.4909 9.17271 59.0003 9.49899V13.8822C59.0003 14.3723 59.3277 14.3723 59.743 14.3723H60.009V14.7573C59.4909 14.7573 58.9718 14.7277 58.4388 14.7277C57.9062 14.7277 57.372 14.7423 56.8394 14.7573V14.3723H57.1065C57.5212 14.3723 57.8168 14.3723 57.8168 13.8822V9.95727H57.8169ZM65.4003 10.6691C65.3695 10.8027 65.3695 11.0245 65.4003 11.5286C65.4875 12.935 66.3933 14.0901 67.5762 14.0901C68.3915 14.0901 69.0296 13.6459 69.5767 13.0983L69.7834 13.3061C69.1018 14.2092 68.2579 14.9791 67.0442 14.9791C64.6889 14.9791 64.215 12.6976 64.215 11.7505C64.215 8.84688 66.1696 7.98744 67.2057 7.98744C68.4059 7.98744 69.6952 8.74244 69.7091 10.3126C69.7091 10.4026 69.7091 10.4903 69.6952 10.5803L69.561 10.6691H65.4003ZM68.0222 10.1948C68.3915 10.1948 68.4352 10.002 68.4352 9.82483C68.4352 9.06928 67.9763 8.46186 67.1465 8.46186C66.2441 8.46186 65.6221 9.12739 65.4444 10.1948H68.0222ZM70.0501 14.3723H70.4502C70.8636 14.3723 71.1598 14.3723 71.1598 13.8822V9.72084C71.1598 9.26206 70.6128 9.17266 70.3899 9.05419V8.83291C71.4711 8.37302 72.064 7.98744 72.1986 7.98744C72.2864 7.98744 72.3299 8.03215 72.3299 8.18079V9.51352H72.3613C72.7306 8.93628 73.3537 7.98744 74.2562 7.98744C74.6266 7.98744 75.1 8.2389 75.1 8.77256C75.1 9.17266 74.8194 9.52917 74.4049 9.52917C73.9439 9.52917 73.9439 9.17266 73.4264 9.17266C73.1744 9.17266 72.3457 9.51352 72.3457 10.4026V13.8822C72.3457 14.3723 72.6413 14.3723 73.0564 14.3723H73.8851V14.7573C73.0704 14.7422 72.4507 14.7277 71.8126 14.7277C71.2058 14.7277 70.5832 14.7423 70.0502 14.7573V14.3723H70.0501ZM75.752 12.6976C75.9449 13.6755 76.5366 14.5053 77.6184 14.5053C78.4901 14.5053 78.8164 13.9722 78.8164 13.4537C78.8164 11.7057 75.5888 12.2685 75.5888 9.88406C75.5888 9.05425 76.256 7.9875 77.8844 7.9875C78.3577 7.9875 78.9941 8.12161 79.5713 8.41833L79.6764 9.9277H79.335C79.1875 8.99557 78.6695 8.46198 77.7206 8.46198C77.1283 8.46198 76.5661 8.8029 76.5661 9.43931C76.5661 11.1738 80.0016 10.6391 80.0016 12.9642C80.0016 13.9416 79.2165 14.9792 77.4541 14.9792C76.8617 14.9792 76.166 14.7719 75.648 14.4763L75.4849 12.7726L75.752 12.6976ZM93.3744 7.09895H93.0049C92.7234 5.36668 91.494 4.66986 89.836 4.66986C88.1317 4.66986 85.6585 5.80975 85.6585 9.36432C85.6585 12.3584 87.7925 14.5052 90.0724 14.5052C91.5381 14.5052 92.7535 13.4983 93.0496 11.9426L93.3894 12.0309L93.0496 14.1934C92.4276 14.5795 90.7541 14.9791 89.7756 14.9791C86.3111 14.9791 84.12 12.7423 84.12 9.40959C84.12 6.37308 86.8296 4.19488 89.732 4.19488C90.9312 4.19488 92.0863 4.58157 93.2268 4.98167L93.3744 7.09895ZM93.9086 14.3723H94.1891C94.6043 14.3723 94.9016 14.3723 94.9016 13.8822V5.63328C94.9016 4.66991 94.6792 4.64024 94.1159 4.47763V4.2407C94.7082 4.04853 95.3301 3.78137 95.6415 3.60317C95.8029 3.51488 95.9225 3.43994 95.9661 3.43994C96.0566 3.43994 96.0862 3.52941 96.0862 3.64837V13.8822C96.0862 14.3723 96.4114 14.3723 96.8266 14.3723H97.0765V14.7573C96.5752 14.7573 96.0566 14.7277 95.5229 14.7277C94.9905 14.7277 94.4573 14.7423 93.9085 14.7573V14.3723H93.9086ZM103.417 13.9415C103.417 14.2092 103.58 14.2237 103.831 14.2237C104.009 14.2237 104.231 14.2092 104.424 14.2092V14.521C103.786 14.5796 102.572 14.8909 102.29 14.9792L102.216 14.9344V13.7359C101.329 14.4611 100.646 14.9792 99.5941 14.9792C98.7945 14.9792 97.9653 14.4611 97.9653 13.2178V9.42467C97.9653 9.03966 97.9066 8.66912 97.0785 8.59542V8.31378C97.6122 8.29925 98.7946 8.21035 98.9879 8.21035C99.1522 8.21035 99.1522 8.31378 99.1522 8.63956V12.46C99.1522 12.9054 99.1522 14.1789 100.44 14.1789C100.943 14.1789 101.609 13.7939 102.231 13.277V9.29051C102.231 8.99546 101.52 8.83285 100.988 8.68415V8.41761C102.319 8.3282 103.15 8.21029 103.297 8.21029C103.417 8.21029 103.417 8.31367 103.417 8.4774V13.9415H103.417ZM106.364 9.05425C106.956 8.55071 107.756 7.9875 108.571 7.9875C110.289 7.9875 111.325 9.48508 111.325 11.0983C111.325 13.0385 109.904 14.9791 107.785 14.9791C106.689 14.9791 106.112 14.6232 105.726 14.4611L105.283 14.8008L104.973 14.6388C105.104 13.7649 105.179 12.9054 105.179 12.0024V5.63323C105.179 4.66991 104.956 4.64024 104.394 4.47763V4.2407C104.988 4.04853 105.608 3.78137 105.919 3.60311C106.082 3.51482 106.2 3.43994 106.246 3.43994C106.335 3.43994 106.364 3.52941 106.364 3.64837V9.05419H106.364V9.05425ZM106.364 13.0826C106.364 13.6459 106.897 14.5947 107.889 14.5947C109.474 14.5947 110.14 13.0385 110.14 11.7198C110.14 10.1205 108.927 8.78776 107.771 8.78776C107.222 8.78776 106.764 9.14371 106.364 9.48508V13.0826H106.364ZM42.4722 23.3689H42.5856C42.8751 23.3689 43.1813 23.3299 43.1813 22.9102V18.6879C43.1813 18.2676 42.8751 18.228 42.5856 18.228H42.4722V17.986C42.7868 17.986 43.2701 18.0179 43.6663 18.0179C44.0687 18.0179 44.5515 17.986 44.9303 17.986V18.228H44.8169C44.528 18.228 44.2213 18.2677 44.2213 18.6879V22.9102C44.2213 23.3299 44.528 23.3689 44.8169 23.3689H44.9303V23.6121C44.5436 23.6121 44.0592 23.5802 43.6574 23.5802C43.2624 23.5802 42.7868 23.6121 42.4722 23.6121V23.3689Z" fill="white"/>
<path d="M44.9305 23.6462C44.541 23.6462 44.0583 23.6138 43.657 23.6138C43.263 23.6138 42.7892 23.6462 42.4723 23.6462H42.4377V23.3344H42.5853C42.8775 23.3277 43.1435 23.3042 43.1463 22.9103V18.6879C43.1435 18.294 42.8775 18.2677 42.5853 18.2621H42.4377V17.9503H42.4723C42.7892 17.9503 43.272 17.9822 43.6659 17.9822C44.0671 17.9822 44.5494 17.9503 44.9305 17.9503H44.9663V18.2621H44.8176C44.5254 18.2677 44.2576 18.294 44.256 18.6879V22.9103C44.2576 23.3042 44.5253 23.3277 44.8176 23.3344H44.9662V23.6462H44.9305ZM44.8958 23.5774V23.4053H44.8177C44.5299 23.4053 44.1873 23.3556 44.1856 22.9103V18.6879C44.1873 18.2426 44.5298 18.1923 44.8177 18.1923H44.8958V18.0213C44.5237 18.0213 44.0571 18.0526 43.6659 18.0526C43.2832 18.0526 42.8199 18.0235 42.5081 18.0213V18.1923H42.5852C42.8724 18.1923 43.2161 18.2426 43.2161 18.6879V22.9103C43.2161 23.3556 42.8724 23.4053 42.5852 23.4053H42.5081V23.5774C42.8199 23.5741 43.2753 23.545 43.657 23.545C44.0493 23.545 44.5159 23.5752 44.8958 23.5774V23.5774ZM50.4665 22.0234L50.4827 22.0078V18.9858C50.4827 18.3242 50.0228 18.228 49.7814 18.228H49.6037V17.986C49.9831 17.986 50.3536 18.0179 50.7319 18.0179C51.0621 18.0179 51.3941 17.986 51.7237 17.986V18.228H51.603C51.2639 18.228 50.885 18.2922 50.885 19.2512V22.9192C50.885 23.2008 50.8933 23.4824 50.933 23.7323H50.6263L46.4772 19.106V22.4269C46.4772 23.1282 46.613 23.369 47.2344 23.369H47.3706V23.6121C47.0248 23.6121 46.6789 23.5803 46.3318 23.5803C45.9703 23.5803 45.5993 23.6121 45.2361 23.6121V23.369H45.349C45.905 23.369 46.0738 22.9912 46.0738 22.347V18.9523C46.0738 18.5013 45.7022 18.2281 45.3412 18.2281H45.2362V17.9861C45.5423 17.9861 45.8564 18.0179 46.1621 18.0179C46.404 18.0179 46.6382 17.9861 46.8795 17.9861L50.4665 22.0234Z" fill="white"/>
<path d="M50.9328 23.7674L50.6003 23.755L46.511 19.197V22.4268C46.5205 23.1276 46.6272 23.3266 47.2341 23.3343H47.4068V23.6461H47.371C47.0223 23.6461 46.6753 23.6137 46.3316 23.6137C45.9706 23.6137 45.6007 23.6461 45.2352 23.6461H45.2V23.3343H45.3486C45.8812 23.3315 46.0332 22.9895 46.0393 22.3469V18.9528C46.0381 18.5236 45.6862 18.2632 45.3408 18.2621H45.2V17.9514H45.2352C45.5431 17.9514 45.8588 17.9821 46.1611 17.9821C46.4008 17.9821 46.6344 17.9514 46.906 17.9631L50.4476 21.9502V18.9864C50.4432 18.3449 50.0157 18.2677 49.781 18.2621H49.5675V17.9514H49.6033C49.9839 17.9514 50.3549 17.9821 50.7315 17.9821C51.0595 17.9821 51.3898 17.9514 51.7228 17.9514H51.758V18.2621H51.6027C51.2702 18.2716 50.9288 18.3006 50.9193 19.2511V22.9185C50.9193 23.2002 50.9276 23.4818 50.9668 23.726L50.9746 23.7673H50.9328V23.7674ZM50.6266 23.6964H50.8932C50.8569 23.4544 50.8507 23.1862 50.8507 22.9185V19.2511C50.8507 18.2838 51.2558 18.1923 51.6028 18.1923H51.6878V18.0212C51.3704 18.0234 51.0519 18.0525 50.7317 18.0525C50.3629 18.0525 50.0042 18.0234 49.6393 18.0212L49.6387 18.1923H49.7812C50.0287 18.1923 50.5177 18.3028 50.5177 18.9863L50.5065 22.0317L50.4903 22.0485L50.463 22.0737L46.8794 18.0212C46.6403 18.0212 46.4066 18.0525 46.1613 18.0525C45.8657 18.0525 45.5634 18.0234 45.2711 18.0212L45.2695 18.1922H45.341C45.7193 18.1922 46.1077 18.4811 46.1077 18.9527V22.3469C46.1077 22.9911 45.9283 23.4035 45.3488 23.4057L45.2711 23.4035V23.5773C45.6204 23.5739 45.9791 23.5449 46.3317 23.5449C46.6681 23.5449 47.0029 23.574 47.3358 23.5773V23.4057H47.2342C46.5999 23.4035 46.4424 23.1275 46.4418 22.4267V19.0153L50.6266 23.6964ZM50.4662 22.0228L50.4919 21.9993L50.4662 22.0228ZM50.4477 22.0072V22.0044L50.441 21.9987L50.4477 22.0072ZM52.93 18.3883C52.3248 18.3883 52.3019 18.5337 52.1812 19.1215H51.9392C51.9711 18.8963 52.0113 18.6711 52.0359 18.4364C52.0683 18.2106 52.0839 17.9859 52.0839 17.7524H52.2778C52.3426 17.9944 52.5438 17.986 52.7623 17.986H56.9192C57.1371 17.986 57.3383 17.9782 57.3551 17.7357L57.5473 17.7681C57.516 17.986 57.4836 18.2034 57.459 18.4213C57.4445 18.6387 57.4445 18.8566 57.4445 19.0734L57.2019 19.1634C57.1852 18.8656 57.1449 18.3883 56.6057 18.3883H55.2841V22.6766C55.2841 23.2979 55.5664 23.369 55.9519 23.369H56.1056V23.612C55.7915 23.612 55.2266 23.5802 54.7924 23.5802C54.3091 23.5802 53.7441 23.612 53.4295 23.612V23.369H53.5832C54.0274 23.369 54.252 23.3292 54.252 22.6933V18.3883H52.93Z" fill="white"/>
<path d="M56.107 23.6461C55.7895 23.6461 55.2257 23.6137 54.7926 23.6137C54.3098 23.6137 53.7461 23.6461 53.4297 23.6461H53.3962V23.3343H53.5834C54.0276 23.3237 54.2064 23.3181 54.2165 22.6933V18.4236H52.9302V18.3526H54.2864V22.6933C54.2864 23.3399 54.026 23.4052 53.5834 23.4058H53.465V23.5757C53.7829 23.5741 54.325 23.5449 54.7927 23.5449C55.213 23.5449 55.7516 23.5741 56.0701 23.5757V23.4058H55.9522C55.5627 23.4052 55.2492 23.3097 55.2492 22.6766V18.3526H56.606C57.1469 18.3548 57.2173 18.8147 57.2352 19.1137L57.409 19.0494C57.409 18.8393 57.4101 18.6286 57.4246 18.4163C57.4481 18.209 57.4777 18.0033 57.5079 17.7977L57.3849 17.777C57.3475 18.0117 57.1211 18.0235 56.9183 18.0212H52.7206C52.5312 18.0212 52.3239 18.0123 52.2518 17.7871H52.1188C52.118 18.0059 52.1021 18.2243 52.0712 18.4409C52.0478 18.6622 52.0109 18.8751 51.9807 19.088H52.1534C52.2595 18.5264 52.3289 18.3442 52.9301 18.3526V18.4236C52.3344 18.4342 52.3468 18.5348 52.2154 19.1305L52.2093 19.1579H51.8992L51.9036 19.116C51.9361 18.8902 51.9769 18.6655 52.0009 18.4308C52.0344 18.2073 52.05 17.9838 52.05 17.7524V17.7172H52.3054L52.311 17.7424C52.3663 17.9458 52.5155 17.9469 52.7206 17.9503H56.9183C57.143 17.9469 57.3061 17.9435 57.3201 17.7328L57.3234 17.6948L57.3597 17.7026L57.5872 17.7385L57.5821 17.7737C57.5497 17.9894 57.5179 18.2073 57.4944 18.4236C57.4782 18.6381 57.4782 18.8561 57.4782 19.0734V19.0986L57.4559 19.1075L57.1703 19.2114L57.1681 19.1645C57.1468 18.8616 57.115 18.4235 56.6059 18.4235H55.3196V22.6765C55.3268 23.2845 55.5682 23.3264 55.9521 23.3342H56.141V23.646L56.107 23.6461ZM57.8052 23.3689H57.9186C58.2081 23.3689 58.5148 23.3299 58.5148 22.9101V18.6879C58.5148 18.2676 58.2081 18.228 57.9186 18.228H57.8052V17.986C58.2958 17.986 59.1352 18.0179 59.8106 18.0179C60.4891 18.0179 61.3256 17.986 61.8732 17.986C61.8599 18.3319 61.8671 18.865 61.891 19.2188L61.648 19.2835C61.6095 18.76 61.5127 18.3415 60.6662 18.3415H59.5469V20.452H60.5048C60.988 20.452 61.0937 20.1788 61.1412 19.7424H61.3826C61.367 20.0581 61.3586 20.3722 61.3586 20.6862C61.3586 20.993 61.367 21.2987 61.3826 21.6049L61.1412 21.6529C61.0937 21.1696 61.0692 20.8555 60.5125 20.8555H59.547V22.7325C59.547 23.2572 60.0125 23.2572 60.5288 23.2572C61.496 23.2572 61.9224 23.1918 62.1644 22.2743L62.3902 22.3296C62.2846 22.7576 62.1884 23.184 62.1169 23.6121C61.6006 23.6121 60.6735 23.5802 59.9493 23.5802C59.2228 23.5802 58.2646 23.6121 57.8052 23.6121V23.3689Z" fill="white"/>
<path d="M62.1162 23.6461C61.5987 23.6461 60.6722 23.6131 59.9486 23.6131C59.2228 23.6131 58.2649 23.6461 57.805 23.6461H57.771V23.3343H57.918C58.2102 23.3299 58.475 23.3041 58.479 22.9102V18.6879C58.4751 18.2945 58.2102 18.2682 57.918 18.2621H57.771V17.9514H57.805C58.2968 17.9514 59.135 17.9822 59.8106 17.9822C60.4883 17.9822 61.3243 17.9514 61.8731 17.9514H61.9094L61.9077 17.9872C61.9021 18.1084 61.8999 18.2514 61.8999 18.4035C61.8999 18.6823 61.9077 18.9868 61.9239 19.2165L61.925 19.2456L61.8982 19.2535L61.6149 19.3272L61.6133 19.2859C61.5658 18.7628 61.4959 18.3834 60.6662 18.3756H59.5804L59.5793 20.4158H60.5047C60.9686 20.4113 61.0517 20.1738 61.1065 19.7396L61.1094 19.7078H61.4184L61.4178 19.744C61.4022 20.0581 61.3921 20.3721 61.3921 20.6862C61.3921 20.9913 61.4022 21.2969 61.4178 21.6037L61.4184 21.6323L61.3893 21.6389L61.1094 21.6948L61.1065 21.6568C61.0512 21.1651 61.0472 20.8957 60.5119 20.8896L59.5804 20.889V22.7325C59.5811 23.222 60.0034 23.2192 60.5287 23.222C61.4987 23.2164 61.8877 23.1695 62.1308 22.2642L62.1387 22.2318L62.1727 22.238L62.4309 22.3044L62.423 22.338C62.3192 22.7649 62.2224 23.1907 62.1503 23.6176L62.1436 23.6461H62.1162ZM62.0866 23.5757C62.1564 23.1694 62.2485 22.7616 62.3476 22.3558L62.1883 22.3156C61.9469 23.2175 61.4796 23.2979 60.5286 23.2919C60.0212 23.2919 59.5127 23.2919 59.5104 22.7324V20.8202H60.5119C61.0745 20.8141 61.1322 21.1538 61.1718 21.6126L61.3462 21.5763C61.3307 21.2799 61.3231 20.983 61.3233 20.6861C61.3233 20.3827 61.3305 20.081 61.3462 19.7775H61.1718C61.1271 20.1972 60.9958 20.4922 60.5046 20.4866H59.5105V18.3051H60.6662C61.5044 18.2994 61.6434 18.732 61.6792 19.2388L61.8531 19.1919C61.8391 18.9645 61.8295 18.6728 61.8295 18.4034C61.8295 18.2654 61.8329 18.1352 61.8374 18.0212C61.2898 18.0234 60.4739 18.0525 59.8106 18.0525C59.1484 18.0525 58.3332 18.0234 57.8397 18.0212V18.1922H57.9179C58.2051 18.1922 58.5483 18.2425 58.5493 18.6879V22.9102C58.5482 23.3544 58.2051 23.4036 57.9179 23.4058H57.8397V23.5757C58.3097 23.5751 59.2407 23.545 59.9486 23.545C60.6594 23.545 61.5669 23.5751 62.0866 23.5757V23.5757ZM63.4776 18.8399C63.4776 18.252 63.1557 18.228 62.9048 18.228H62.7601V17.9854C63.0182 17.9854 63.5172 18.0179 64.009 18.0179C64.4924 18.0179 64.8796 17.9854 65.3061 17.9854C66.3207 17.9854 67.2244 18.2598 67.2244 19.4054C67.2244 20.129 66.7411 20.5727 66.1045 20.8236L67.482 22.8856C67.7077 23.2264 67.8681 23.322 68.2637 23.3689V23.612C67.9977 23.612 67.7395 23.5801 67.4741 23.5801C67.2244 23.5801 66.9656 23.612 66.7169 23.612C66.0966 22.7978 65.5636 21.9272 65.0399 20.9996H64.5097V22.7252C64.5097 23.3466 64.7986 23.3689 65.169 23.3689H65.3143V23.612C64.8539 23.612 64.3885 23.5802 63.9286 23.5802C63.5413 23.5802 63.1624 23.612 62.7601 23.612V23.3689H62.9048C63.2043 23.3689 63.4776 23.2337 63.4776 22.9347V18.8399ZM64.5096 20.7096H64.9031C65.7094 20.7096 66.1435 20.4034 66.1435 19.4523C66.1435 18.7359 65.6848 18.276 64.9668 18.276C64.7248 18.276 64.622 18.3012 64.5095 18.3084V20.7096H64.5096Z" fill="white"/>
<path d="M68.2635 23.6462C67.9936 23.6462 67.7371 23.6138 67.4723 23.6138C67.2264 23.6138 66.9694 23.6462 66.6883 23.6327C66.0702 22.8219 65.5405 21.9564 65.0197 21.0355H64.5436V22.7242C64.552 23.3305 64.7956 23.3255 65.1684 23.3344H65.3488V23.6462H65.313C64.8526 23.6462 64.3849 23.6138 63.9273 23.6138C63.5422 23.6138 63.1645 23.6462 62.7599 23.6462H62.7246V23.3344H62.9046C63.1951 23.3327 63.4399 23.2064 63.441 22.9349V18.84C63.435 18.2678 63.155 18.2711 62.9046 18.2628H62.7246V17.9504H62.7599C63.0208 17.9504 63.5182 17.9822 64.0088 17.9822C64.4899 17.9822 64.8772 17.9504 65.3064 17.9504C66.3217 17.9527 67.2571 18.2332 67.2599 19.4033C67.2599 20.1314 66.7788 20.5857 66.1568 20.8394L67.5108 22.8667C67.736 23.2009 67.8763 23.2842 68.2686 23.3344L68.2981 23.3389V23.6462H68.2635V23.6462ZM64.5085 20.965H65.0594L65.0689 20.9829C65.5942 21.9088 66.1233 22.7783 66.7168 23.5774C66.9626 23.5774 67.2213 23.5444 67.4723 23.5444C67.7298 23.5444 67.9779 23.5723 68.2288 23.5763V23.3997C67.8505 23.3527 67.6734 23.2399 67.4533 22.9051L66.0512 20.8068L66.0909 20.7906C66.7212 20.5425 67.1878 20.1117 67.1884 19.4031C67.1878 18.2849 66.3194 18.0257 65.3064 18.0212C64.8811 18.0212 64.4944 18.0531 64.0088 18.0531C63.5355 18.0531 63.0577 18.0235 62.794 18.0212V18.1922H62.9046C63.1549 18.1928 63.5114 18.2341 63.5114 18.8399V22.9348C63.5114 23.2583 63.208 23.4058 62.9046 23.4064H62.794V23.5762C63.1818 23.5751 63.5489 23.5444 63.9273 23.5444C64.3781 23.5444 64.8325 23.5751 65.2784 23.5762V23.4064H65.1683C64.8006 23.4058 64.4732 23.36 64.4732 22.7241V20.965H64.5084H64.5085ZM64.5085 20.7437H64.4732V18.2761L64.5039 18.2733C64.614 18.2649 64.723 18.242 64.9666 18.242C65.7009 18.242 66.1781 18.7192 66.1792 19.4539C66.177 20.4162 65.7154 20.7431 64.9029 20.7436H64.5085V20.7437ZM64.9029 20.6745C65.7008 20.6677 66.1021 20.3906 66.1105 19.454C66.106 18.7499 65.6685 18.3129 64.9666 18.3101C64.7486 18.3101 64.6464 18.3303 64.5436 18.3393V20.6745H64.9029ZM73.7347 22.0234L73.7493 22.0077V18.9857C73.7493 18.3241 73.2905 18.228 73.0491 18.228H72.8726V17.986C73.2509 17.986 73.6208 18.0178 74.0002 18.0178C74.331 18.0178 74.6602 17.986 74.9926 17.986V18.228H74.8714C74.5328 18.228 74.1539 18.2922 74.1539 19.2512V22.9191C74.1539 23.2008 74.1618 23.4824 74.2014 23.7322H73.8958L69.7461 19.1059V22.4269C69.7461 23.1282 69.883 23.369 70.5033 23.369H70.6402V23.6121C70.2943 23.6121 69.9473 23.5802 69.6014 23.5802C69.2375 23.5802 68.8671 23.6121 68.505 23.6121V23.369H68.6167C69.1734 23.369 69.3426 22.9912 69.3426 22.347V18.9523C69.3426 18.5013 68.9721 18.228 68.6101 18.228H68.505V17.9861C68.8101 17.9861 69.1259 18.0179 69.4315 18.0179C69.6718 18.0179 69.9065 17.9861 70.1484 17.9861L73.7347 22.0234Z" fill="white"/>
<path d="M74.2017 23.7667L73.8698 23.7556L69.7801 19.1969V22.4262C69.7896 23.1275 69.8957 23.3264 70.5036 23.3343H70.6741V23.6461H70.6389C70.2903 23.6461 69.9449 23.6131 69.5995 23.6131C69.2397 23.6131 68.8675 23.6461 68.5048 23.6461H68.4685V23.3343H68.6166C69.1486 23.3321 69.3011 22.9895 69.3061 22.3447V18.9522C69.3056 18.523 68.9542 18.2626 68.6099 18.262H68.4685V17.9503H68.5048C68.8122 17.9503 69.1274 17.9821 69.4313 17.9821C69.6682 17.9821 69.9018 17.9503 70.1723 17.9614L73.7146 21.9501V18.9851C73.7123 18.3447 73.2831 18.2654 73.049 18.2621H72.8361V17.9503H72.8713C73.2524 17.9503 73.6234 17.9821 74.0001 17.9821C74.3287 17.9821 74.6589 17.9503 74.9908 17.9503H75.026V18.2621H74.8712C74.5387 18.271 74.1961 18.3006 74.1878 19.2512V22.9185C74.1878 23.2001 74.1951 23.4795 74.2359 23.7276L74.2403 23.7667H74.2017ZM73.8956 23.6963H74.1604C74.1252 23.4544 74.1173 23.1862 74.1173 22.9185V19.2511C74.1179 18.2838 74.5259 18.1944 74.8712 18.1916H74.9555V18.0212C74.6393 18.0234 74.3202 18.0525 74 18.0525C73.6301 18.0525 73.2707 18.0234 72.9059 18.0212V18.1916H73.049C73.297 18.1944 73.7855 18.3028 73.7855 18.9851L73.7743 22.0317L73.7586 22.0484L73.7341 22.0741L70.1477 18.0212C69.9085 18.0212 69.6749 18.0525 69.4314 18.0525C69.133 18.0525 68.8318 18.0235 68.5384 18.0212V18.1917H68.6099C68.9882 18.1945 69.3766 18.48 69.3766 18.9522V22.3446C69.3766 22.9917 69.1944 23.4035 68.6166 23.4058L68.5384 23.4052V23.5756C68.8865 23.574 69.2458 23.5449 69.5996 23.5449C69.9377 23.5449 70.2724 23.574 70.6054 23.5756V23.4058H70.5037C69.869 23.4052 69.7103 23.1275 69.7091 22.4262V19.0164L73.8956 23.6963ZM73.7346 22.0227L73.7591 21.9998L73.7346 22.0227ZM73.7145 22.0076V22.0048L73.7083 21.9987L73.7145 22.0076ZM76.2884 22.4592C76.2069 22.7324 76.1097 22.9436 76.1097 23.0872C76.1097 23.3298 76.4489 23.3689 76.7138 23.3689H76.8037V23.612C76.4808 23.5946 76.1516 23.5801 75.8269 23.5801C75.537 23.5801 75.2486 23.5947 74.9581 23.612V23.3689H75.0066C75.3206 23.3689 75.5873 23.1839 75.7062 22.8447L76.9971 19.1465C77.101 18.8481 77.2474 18.4453 77.2961 18.1464C77.5526 18.0586 77.8755 17.8977 78.0281 17.8005C78.0532 17.7921 78.0672 17.7837 78.0924 17.7837C78.1164 17.7837 78.132 17.7837 78.1499 17.8088C78.1734 17.8725 78.1968 17.9457 78.2226 18.01L79.705 22.2256C79.8017 22.5072 79.8972 22.8051 80.0018 23.0476C80.0991 23.2733 80.2689 23.3689 80.5354 23.3689H80.5829V23.612C80.2204 23.5946 79.8571 23.5802 79.4715 23.5802C79.0765 23.5802 78.6724 23.5947 78.2617 23.612V23.3689H78.3511C78.5356 23.3689 78.8508 23.3376 78.8508 23.1359C78.8508 23.0314 78.7781 22.814 78.6881 22.5553L78.3746 21.6204H76.5457L76.2884 22.4592ZM77.4642 18.8884H77.448L76.6986 21.1695H78.2046L77.4642 18.8884Z" fill="white"/>
<path d="M80.5806 23.6461C80.218 23.6299 79.8553 23.6131 79.4714 23.6131C79.0763 23.6131 78.6751 23.6299 78.2627 23.6461L78.2264 23.6484V23.3332H78.3505C78.5371 23.3332 78.8142 23.2907 78.8142 23.136C78.8165 23.0443 78.7438 22.823 78.655 22.5666L78.3482 21.6552H76.5707L76.3204 22.4693C76.2387 22.7442 76.1422 22.9571 76.1427 23.0884C76.1454 23.2852 76.4466 23.3332 76.7137 23.3332H76.8378V23.6484L76.8015 23.6461C76.4791 23.6299 76.1499 23.6131 75.8286 23.6131C75.5397 23.6131 75.2492 23.6299 74.9603 23.6461L74.9229 23.6484V23.3332H75.0061C75.3061 23.3321 75.5565 23.1617 75.6728 22.8337L76.963 19.135C77.0687 18.836 77.2139 18.4343 77.2838 18.113C77.5364 18.0275 77.8598 17.8654 78.0152 17.7671C78.0376 17.7598 78.06 17.7486 78.093 17.7486C78.1125 17.7481 78.1561 17.7531 78.1818 17.7956C78.2047 17.8621 78.2298 17.9336 78.2544 17.999L79.7386 22.2141C79.8337 22.4968 79.9297 22.7947 80.0349 23.0327C80.1282 23.2479 80.2763 23.3322 80.5355 23.3333H80.6177V23.6485L80.5806 23.6461ZM78.2968 23.574C78.6958 23.5601 79.0864 23.5444 79.4714 23.5444C79.8458 23.5444 80.1961 23.5601 80.5464 23.574V23.4058H80.5353C80.2593 23.4075 80.0687 23.2991 79.9698 23.0616C79.8648 22.8169 79.7664 22.5179 79.672 22.2357L78.1884 18.0213C78.1638 17.957 78.1404 17.8838 78.1191 17.8268C78.1124 17.819 78.114 17.819 78.1074 17.819H78.0928C78.076 17.819 78.0665 17.824 78.0458 17.8296C77.8905 17.9307 77.567 18.0889 77.3283 18.152C77.2786 18.4571 77.1339 18.8595 77.0289 19.1579L75.7391 22.8571C75.6163 23.2069 75.334 23.4064 75.0061 23.4058H74.9932V23.574C75.2692 23.5601 75.5486 23.5444 75.8286 23.5444C76.1398 23.5444 76.4583 23.5601 76.7657 23.574V23.4058H76.7137C76.4517 23.4024 76.085 23.3728 76.075 23.0884C76.0755 22.9275 76.1745 22.7213 76.2532 22.4492L76.2884 22.4597L76.2532 22.448L76.5186 21.5863H78.3974L78.7208 22.5442C78.8114 22.8029 78.8846 23.0175 78.8846 23.1359C78.8735 23.3835 78.5331 23.4008 78.3504 23.4058H78.2967V23.574H78.2968ZM76.6495 21.2041L77.4211 18.8533H77.4648V18.8885L77.4558 18.8901L77.4648 18.8885V18.8533H77.4888L78.2537 21.2041H76.6495ZM76.7461 21.1343H78.1565L77.4552 18.9745L76.7461 21.1343ZM77.4295 18.8986L77.448 18.8924L77.4295 18.8986ZM80.9372 18.3883C80.3326 18.3883 80.3086 18.5337 80.1872 19.1215H79.9452C79.9771 18.8963 80.0179 18.6711 80.0431 18.4364C80.0754 18.2106 80.0901 17.9859 80.0901 17.7524H80.2845C80.3487 17.9944 80.5511 17.986 80.7673 17.986H84.9265C85.1428 17.986 85.3439 17.9782 85.3607 17.7357L85.5534 17.7681C85.5226 17.986 85.4909 18.2034 85.4662 18.4213C85.4489 18.6387 85.4489 18.8566 85.4489 19.0734L85.2075 19.1634C85.1924 18.8656 85.1522 18.3883 84.6119 18.3883H83.2903V22.6766C83.2903 23.2979 83.5731 23.369 83.9587 23.369H84.1117V23.612C83.7977 23.612 83.2344 23.5802 82.7985 23.5802C82.3158 23.5802 81.7508 23.612 81.4368 23.612V23.369H81.5893C82.0335 23.369 82.2593 23.3292 82.2593 22.6933V18.3883H80.9372Z" fill="white"/>
<path d="M84.1117 23.6462C83.7954 23.6462 83.231 23.6138 82.7985 23.6138C82.3167 23.6138 81.7524 23.6462 81.4366 23.6462H81.4009V23.3344H81.5892C82.0334 23.3238 82.2117 23.3182 82.2229 22.6934L82.2217 18.4237H80.9371V18.3527H82.2927V22.6934C82.2927 23.3399 82.0318 23.4036 81.5892 23.4053H81.4708V23.5774C81.7898 23.574 82.3307 23.545 82.7985 23.545C83.2192 23.545 83.7579 23.5741 84.0764 23.5774V23.4053H83.9574C83.5701 23.4036 83.2561 23.3103 83.255 22.6766V18.3527H84.6117C85.1526 18.3549 85.2236 18.8148 85.2388 19.1137L85.4148 19.0495C85.4148 18.8394 85.4153 18.6287 85.4309 18.4175C85.4533 18.2102 85.4834 18.0034 85.5131 17.7977L85.3913 17.777C85.3544 18.0117 85.127 18.0246 84.9264 18.0212H80.7264C80.5364 18.0235 80.3308 18.0123 80.2575 17.786H80.1257C80.1234 18.0095 80.1083 18.2264 80.0765 18.4409C80.0553 18.6628 80.0155 18.8762 79.9854 19.088H80.1581C80.2648 18.5264 80.3347 18.3442 80.937 18.3527V18.4236C80.3397 18.4337 80.3531 18.5348 80.2211 19.1305L80.215 19.1579H79.9043L79.9093 19.1176C79.9429 18.8902 79.9831 18.6655 80.0066 18.4325C80.0395 18.2073 80.0552 17.9838 80.0552 17.7524V17.7172H80.3099L80.3167 17.7424C80.3731 17.9458 80.52 17.9469 80.7263 17.9503L80.767 17.9514H84.9263C85.1487 17.947 85.3112 17.9436 85.3252 17.7335L85.3275 17.6949L85.3655 17.7028L85.594 17.7386L85.5879 17.7738C85.555 17.9895 85.5242 18.2074 85.4997 18.4237C85.4834 18.6383 85.4834 18.8567 85.4834 19.0736V19.0987L85.4606 19.1076L85.175 19.2116L85.1734 19.1646C85.1526 18.8618 85.1208 18.4236 84.6117 18.4236H83.3249V22.6766C83.3333 23.2846 83.574 23.3265 83.9574 23.3343H84.1462V23.6462L84.1117 23.6462ZM85.8509 23.369H85.9639C86.2549 23.369 86.5594 23.3299 86.5594 22.9102V18.6879C86.5594 18.2677 86.2549 18.228 85.9639 18.228H85.8509V17.9861C86.1656 17.9861 86.6484 18.0179 87.0423 18.0179C87.4468 18.0179 87.9303 17.9861 88.3091 17.9861V18.228H88.1962C87.9062 18.228 87.5989 18.2677 87.5989 18.6879V22.9102C87.5989 23.3299 87.9062 23.369 88.1962 23.369H88.3091V23.6121C87.9218 23.6121 87.4379 23.5803 87.0362 23.5803C86.6406 23.5803 86.1656 23.6121 85.8509 23.6121V23.369Z" fill="white"/>
<path d="M88.3095 23.6462C87.92 23.6462 87.4377 23.6132 87.036 23.6132C86.642 23.6132 86.166 23.6462 85.8513 23.6462H85.8162V23.3344H85.9642C86.2553 23.3299 86.5225 23.3048 86.5236 22.9102V18.6879C86.5225 18.2945 86.2553 18.2676 85.9642 18.2621H85.8162V17.9515H85.8513C86.166 17.9515 86.6499 17.9822 87.0427 17.9822C87.4445 17.9822 87.9278 17.9515 88.3095 17.9515H88.3436V18.2621H88.1966C87.9021 18.2677 87.6378 18.2945 87.6339 18.6879V22.9102C87.6378 23.3048 87.9022 23.3299 88.1966 23.3344H88.3436V23.6462H88.3095ZM88.2732 23.5758V23.4053H88.1966C87.9077 23.4053 87.5658 23.3545 87.5658 22.9102V18.6879C87.5658 18.2425 87.9077 18.1923 88.1966 18.1923H88.2732V18.0213C87.901 18.0235 87.4356 18.0526 87.0427 18.0526C86.661 18.0526 86.1989 18.0235 85.8866 18.0213V18.1923H85.9643C86.2509 18.1923 86.5941 18.2425 86.5951 18.6879V22.9102C86.594 23.3544 86.2509 23.4053 85.9643 23.4053H85.8866V23.5758C86.1973 23.5724 86.6533 23.545 87.036 23.545C87.4266 23.545 87.8932 23.5741 88.2731 23.5758H88.2732ZM91.5228 17.8654C93.2406 17.8654 94.6096 18.9304 94.6096 20.6465C94.6096 22.5006 93.2802 23.7327 91.5647 23.7327C89.8548 23.7327 88.5506 22.5721 88.5506 20.8393C88.5506 19.1634 89.847 17.8654 91.5228 17.8654ZM91.6447 23.3779C93.2082 23.3779 93.4803 21.9988 93.4803 20.8236C93.4803 19.6457 92.8456 18.2196 91.5072 18.2196C90.0968 18.2196 89.6783 19.4769 89.6783 20.556C89.6783 21.9988 90.3388 23.3779 91.6447 23.3779Z" fill="white"/>
<path d="M88.5144 20.8392C88.5178 19.1438 89.8299 17.8323 91.5224 17.8301V17.8993C89.8662 17.8993 88.5843 19.1807 88.5826 20.8392C88.5865 22.5524 89.8723 23.6957 91.5644 23.6963C93.2631 23.6957 94.5736 22.4809 94.5763 20.6447C94.5746 18.9505 93.2262 17.9015 91.5225 17.8993V17.8301C93.2536 17.8312 94.6411 18.9069 94.6445 20.6447C94.6429 22.5183 93.296 23.7634 91.5644 23.7667C89.841 23.7633 88.5178 22.591 88.5145 20.8392H88.5144V20.8392ZM89.6433 20.5559C89.6455 19.4719 90.069 18.1832 91.5074 18.1832C92.8753 18.1866 93.514 19.6395 93.5162 20.8236C93.514 21.9987 93.2375 23.4114 91.6449 23.4114V23.3432C93.1771 23.341 93.4426 21.9987 93.4464 20.8236C93.4464 19.6552 92.8172 18.2565 91.5074 18.2548C90.1249 18.2564 89.7158 19.4824 89.7131 20.5559C89.7143 21.9915 90.3686 23.3398 91.6449 23.3432V23.4114C90.3071 23.4097 89.6455 22.0072 89.6433 20.5559ZM100.04 22.0233L100.056 22.0077V18.9857C100.056 18.3241 99.5958 18.2279 99.3538 18.2279H99.1794V17.9859C99.5572 17.9859 99.9277 18.0178 100.305 18.0178C100.637 18.0178 100.967 17.9859 101.298 17.9859V18.2279H101.176C100.838 18.2279 100.459 18.2921 100.459 19.2511V22.9191C100.459 23.2007 100.467 23.4823 100.508 23.7322H100.202L96.0512 19.1059V22.4268C96.0512 23.1281 96.1876 23.3689 96.8079 23.3689H96.9458V23.612C96.5989 23.612 96.253 23.5802 95.9065 23.5802C95.5438 23.5802 95.1723 23.612 94.8096 23.612V23.3689H94.923C95.4802 23.3689 95.6472 22.9911 95.6472 22.3469V18.9522C95.6472 18.5013 95.2783 18.228 94.9146 18.228H94.8096V17.986C95.1158 17.986 95.4304 18.0178 95.7361 18.0178C95.9781 18.0178 96.2111 17.986 96.4536 17.986L100.04 22.0233Z" fill="white"/>
<path d="M100.508 23.7667L100.175 23.755L96.0862 19.1969V22.4268C96.095 23.1275 96.2017 23.3259 96.8069 23.3332H96.9813V23.6461H96.9461C96.5968 23.6461 96.251 23.6137 95.9067 23.6137C95.5451 23.6137 95.1752 23.6461 94.8092 23.6461H94.7756V23.3332H94.9232C95.4546 23.3316 95.6072 22.9896 95.6138 22.3469V18.9522C95.6127 18.523 95.2612 18.2626 94.9148 18.2621H94.7756V17.9514H94.8092C95.1182 17.9514 95.4322 17.9822 95.7362 17.9822C95.9754 17.9822 96.2079 17.9514 96.4805 17.9632L100.021 21.9502V18.9863C100.019 18.3449 99.5897 18.2677 99.3539 18.2621H99.1421V17.9515H99.1785C99.5578 17.9515 99.9294 17.9822 100.304 17.9822C100.635 17.9822 100.964 17.9515 101.298 17.9515H101.333V18.2621H101.176C100.845 18.2716 100.502 18.3018 100.495 19.2512V22.9186C100.495 23.2002 100.501 23.4813 100.54 23.7277L100.547 23.7668H100.508V23.7667ZM100.202 23.6963H100.466C100.431 23.4544 100.425 23.1862 100.425 22.9185V19.2511C100.425 18.2821 100.831 18.1944 101.176 18.1916H101.263V18.0212C100.946 18.0234 100.627 18.0525 100.305 18.0525C99.938 18.0525 99.5776 18.0234 99.2127 18.0212V18.1916H99.354C99.6039 18.1944 100.09 18.3045 100.09 18.9862L100.081 22.0317L100.066 22.0485L100.04 22.0741L96.454 18.0212C96.2165 18.0212 95.9812 18.0525 95.7365 18.0525C95.4397 18.0525 95.1374 18.0235 94.844 18.0212V18.1917H94.915C95.2934 18.1945 95.6828 18.48 95.6828 18.9522V22.3469C95.6828 22.9912 95.5029 23.4036 94.9234 23.4058L94.844 23.4052V23.5757C95.1938 23.574 95.5526 23.545 95.9069 23.545C96.2427 23.545 96.5763 23.574 96.9111 23.5757V23.4058H96.8071C96.1746 23.4052 96.0165 23.1275 96.0165 22.4267V19.0153L100.202 23.6963ZM100.04 22.0227L100.066 21.9998L100.04 22.0227ZM100.021 22.0076V22.0048L100.014 21.9987L100.021 22.0076ZM102.593 22.4592C102.514 22.7324 102.416 22.9436 102.416 23.0872C102.416 23.3298 102.756 23.3689 103.02 23.3689H103.11V23.612C102.787 23.5946 102.457 23.5801 102.134 23.5801C101.843 23.5801 101.554 23.5947 101.265 23.612V23.3689H101.311C101.627 23.3689 101.894 23.1839 102.013 22.8447L103.304 19.1465C103.408 18.8481 103.554 18.4453 103.601 18.1464C103.859 18.0586 104.181 17.8977 104.335 17.8005C104.358 17.7921 104.374 17.7837 104.399 17.7837C104.423 17.7837 104.438 17.7837 104.454 17.8088C104.479 17.8725 104.504 17.9457 104.528 18.01L106.01 22.2256C106.107 22.5072 106.203 22.8051 106.309 23.0476C106.406 23.2733 106.576 23.3689 106.84 23.3689H106.89V23.612C106.526 23.5946 106.164 23.5802 105.777 23.5802C105.383 23.5802 104.979 23.5947 104.568 23.612V23.3689H104.657C104.841 23.3689 105.157 23.3376 105.157 23.1359C105.157 23.0314 105.084 22.814 104.994 22.5553L104.681 21.6204H102.852L102.593 22.4592ZM103.771 18.8884H103.755L103.004 21.1695H104.512L103.771 18.8884Z" fill="white"/>
<path d="M106.886 23.6461C106.524 23.6316 106.161 23.6137 105.776 23.6137C105.384 23.6137 104.98 23.6316 104.569 23.6461L104.533 23.6484V23.3343H104.655C104.843 23.3343 105.121 23.2907 105.122 23.1359C105.123 23.0442 105.051 22.8247 104.961 22.5665L104.654 21.6551H102.876L102.626 22.4692C102.546 22.7453 102.45 22.9571 102.452 23.0873C102.452 23.2851 102.753 23.3343 103.02 23.3343H103.143V23.6484L103.107 23.6461C102.785 23.6316 102.455 23.6137 102.134 23.6137C101.845 23.6137 101.556 23.6316 101.265 23.6461L101.23 23.6484V23.3343H101.311C101.612 23.3331 101.863 23.1605 101.981 22.8336L103.27 19.135C103.373 18.836 103.518 18.4342 103.59 18.114C103.843 18.0263 104.166 17.8654 104.323 17.767C104.344 17.7597 104.366 17.7502 104.399 17.7502C104.42 17.748 104.461 17.753 104.487 17.7971C104.511 17.8603 104.535 17.9335 104.562 17.9989L106.043 22.2139C106.14 22.4967 106.236 22.7945 106.341 23.0342C106.435 23.2477 106.582 23.3321 106.839 23.3343H106.923V23.6484L106.886 23.6461ZM104.602 23.5751C105.001 23.56 105.393 23.5444 105.776 23.5444C106.151 23.5444 106.503 23.56 106.854 23.574L106.853 23.4057H106.839C106.567 23.4063 106.376 23.2991 106.276 23.0616C106.17 22.8168 106.074 22.5179 105.978 22.2367L104.494 18.0212C104.47 17.9569 104.446 17.8837 104.426 17.829C104.42 17.8189 104.42 17.8189 104.414 17.8189H104.399C104.382 17.8189 104.373 17.8245 104.354 17.8301C104.197 17.929 103.874 18.0899 103.635 18.152C103.585 18.4571 103.439 18.8588 103.335 19.1578L102.045 22.8571C101.922 23.2069 101.641 23.4063 101.311 23.4057H101.299V23.574C101.576 23.56 101.854 23.5444 102.134 23.5444C102.446 23.5444 102.764 23.56 103.075 23.574V23.4057H103.02C102.758 23.4024 102.39 23.3739 102.381 23.0873C102.382 22.9275 102.482 22.7224 102.56 22.4491L102.593 22.4597L102.56 22.448L102.825 21.5863H104.705L105.028 22.5441C105.116 22.8034 105.19 23.0174 105.19 23.1359C105.178 23.3834 104.84 23.4007 104.655 23.4057H104.602V23.5751H104.602ZM102.956 21.2036L103.729 18.8533H103.771V18.8885L103.763 18.8901L103.771 18.8885V18.8533H103.796L104.558 21.2036H102.956ZM103.053 21.1343H104.462L103.761 18.9756L103.053 21.1343ZM103.737 18.8986L103.754 18.8924L103.737 18.8986ZM108.92 22.8218C108.92 23.1443 109.144 23.2404 109.402 23.2734C109.732 23.2979 110.095 23.2979 110.467 23.2572C110.804 23.2164 111.095 23.0231 111.239 22.8218C111.368 22.6441 111.44 22.4184 111.489 22.2413H111.723C111.634 22.7006 111.521 23.1532 111.424 23.612C110.717 23.612 110.006 23.5801 109.298 23.5801C108.588 23.5801 107.88 23.612 107.171 23.612V23.3689H107.281C107.573 23.3689 107.888 23.3298 107.888 22.8297V18.6879C107.888 18.2676 107.573 18.228 107.281 18.228H107.171V17.986C107.596 17.986 108.016 18.0179 108.442 18.0179C108.855 18.0179 109.257 17.986 109.668 17.986V18.228H109.465C109.16 18.228 108.92 18.2369 108.92 18.6627V22.8218Z" fill="white"/>
<path d="M111.424 23.6462C110.714 23.6462 110.005 23.6138 109.298 23.6138C108.588 23.6138 107.879 23.6462 107.169 23.6462H107.135V23.3344H107.281C107.573 23.3277 107.85 23.3076 107.853 22.8298V18.6864C107.849 18.2946 107.575 18.2678 107.281 18.2622H107.135V17.9515H107.169C107.598 17.9515 108.017 17.9823 108.443 17.9823C108.852 17.9823 109.254 17.9515 109.668 17.9515H109.701V18.2622H109.466C109.154 18.2711 108.959 18.2566 108.953 18.6629V22.822C108.955 23.1221 109.152 23.2031 109.404 23.2383C109.546 23.2484 109.695 23.2545 109.851 23.2545C110.048 23.2545 110.253 23.245 110.461 23.2227C110.789 23.1842 111.072 22.9947 111.211 22.8025C111.335 22.6304 111.406 22.4091 111.454 22.233L111.462 22.2063H111.765L111.758 22.2487C111.667 22.7098 111.556 23.1601 111.458 23.6189L111.452 23.6463H111.424V23.6462ZM111.395 23.5758C111.488 23.1388 111.594 22.7113 111.681 22.2754H111.515C111.465 22.4509 111.393 22.6671 111.267 22.8431C111.116 23.0521 110.818 23.2488 110.469 23.2919C110.257 23.3136 110.048 23.3248 109.851 23.3248C109.695 23.3248 109.543 23.3176 109.397 23.3074C109.135 23.2784 108.881 23.1666 108.882 22.8219V18.6628C108.882 18.2152 109.165 18.1923 109.466 18.1923H109.633V18.0213C109.235 18.0235 108.844 18.0531 108.443 18.0531C108.025 18.0531 107.618 18.0235 107.204 18.0213V18.1923H107.281C107.569 18.1923 107.921 18.2426 107.921 18.6862V22.8297C107.921 23.3511 107.571 23.4053 107.281 23.4053H107.204V23.5757C107.901 23.5752 108.598 23.545 109.298 23.545C109.998 23.545 110.698 23.5752 111.395 23.5758V23.5758ZM111.625 17.757C112.11 17.757 112.473 18.1302 112.473 18.6086C112.473 19.0847 112.11 19.4546 111.625 19.4546C111.139 19.4546 110.776 19.0847 110.776 18.6086C110.776 18.1303 111.139 17.757 111.625 17.757ZM111.625 19.2964C112.004 19.2964 112.296 18.9723 112.296 18.6086C112.296 18.2426 112.009 17.9157 111.625 17.9157C111.243 17.9157 110.951 18.2426 110.951 18.6086C110.951 18.9723 111.243 19.2964 111.625 19.2964ZM111.202 19.0556V19.0137C111.307 18.9992 111.326 19.0025 111.326 18.9377V18.3096C111.326 18.2214 111.316 18.1912 111.206 18.1956V18.1526H111.64C111.79 18.1526 111.927 18.2236 111.927 18.3778C111.927 18.5041 111.843 18.5974 111.726 18.6337L111.865 18.8281C111.931 18.9164 112.004 18.9992 112.053 19.0282V19.0556H111.887C111.808 19.0556 111.739 18.8885 111.582 18.6644H111.488V18.9466C111.488 19.0025 111.508 18.9991 111.612 19.0136V19.0556H111.202V19.0556ZM111.488 18.6086H111.588C111.698 18.6086 111.749 18.5253 111.749 18.3918C111.749 18.2565 111.67 18.209 111.583 18.209H111.488V18.6086Z" fill="white"/>
</svg>
