<svg width="65" height="31" viewBox="0 0 65 31" fill="none" xmlns="http://www.w3.org/2000/svg">
<path d="M13.3974 9.49612C14.0228 9.28566 14.6899 9.17341 15.382 9.17341C18.4117 9.17341 20.9411 11.3454 21.5193 14.233L25.8137 13.349C24.8298 8.4438 20.5325 4.75085 15.382 4.75085C14.2007 4.75085 13.0694 4.94448 12.0076 5.30367L13.3974 9.49612Z" fill="white"/>
<path d="M8.33023 23.5439L11.2349 20.2298C9.9396 19.0709 9.12241 17.3787 9.12241 15.493C9.12241 13.61 9.9396 11.9179 11.2349 10.7617L8.33023 7.44482C6.1288 9.41477 4.73901 12.2911 4.73901 15.493C4.73901 18.6977 6.1288 21.574 8.33023 23.5439" fill="white"/>
<path d="M21.5193 16.7614C20.9384 19.6461 18.4117 21.8153 15.3848 21.8153C14.6899 21.8153 14.02 21.7031 13.3974 21.4898L12.0076 25.6879C13.0694 26.0442 14.2034 26.2379 15.3848 26.2379C20.5298 26.2379 24.8242 22.5505 25.8137 17.6509L21.5193 16.7614Z" fill="white"/>
<path d="M29.5688 20.3673C29.4271 20.1372 29.2381 19.7696 29.1213 19.4974C28.4403 17.9035 28.4098 16.2534 28.9823 14.6707C29.6133 12.9337 30.8196 11.6064 32.379 10.9273C34.3386 10.077 36.5039 10.2426 38.3829 11.3678C39.5753 12.0582 40.4203 13.1245 41.0624 14.6342C41.143 14.8279 41.2153 15.0327 41.2875 15.2095L29.5688 20.3673ZM33.4825 13.4893C32.0899 14.0927 31.3728 15.4116 31.5229 16.955L37.4156 14.3929C36.401 13.1919 35.0835 12.7934 33.4825 13.4893V13.4893ZM38.1494 19.0624C38.1466 19.0624 38.1466 19.0652 38.1466 19.0652L38.0243 18.981C37.6713 19.5563 37.1237 20.0249 36.4316 20.328C35.1141 20.9061 33.8939 20.7574 33.0155 19.98L32.9349 20.1035C32.9349 20.1035 32.9349 20.1007 32.9321 20.1007L31.4367 22.3597C31.8092 22.6207 32.2067 22.8396 32.6236 23.0163C34.2747 23.7095 35.9646 23.6758 37.6296 22.9462C38.8332 22.4186 39.7782 21.6161 40.4231 20.5974L38.1494 19.0624ZM45.3819 7.60474V20.1596L47.3164 20.951L46.2185 23.5383L44.0838 22.6403C43.6057 22.4298 43.2777 22.1099 43.0331 21.7479C42.7969 21.3803 42.6217 20.8724 42.6217 20.1933V7.60474H45.3819ZM50.3907 16.9634C50.3907 15.8942 50.8604 14.9345 51.5998 14.2835L49.6152 12.0497C48.2698 13.2508 47.4221 15.0047 47.4221 16.9578C47.4193 18.9137 48.2671 20.6704 49.6096 21.8714L51.5914 19.6377C50.8549 18.9838 50.3907 18.0297 50.3907 16.9634V16.9634ZM53.9152 20.5244C53.526 20.5244 53.148 20.4571 52.7978 20.3392L51.8499 23.1819C52.4976 23.4008 53.1897 23.5215 53.9124 23.5215C57.0533 23.5243 59.6745 21.2737 60.2832 18.2851L57.3702 17.6846C57.0394 19.3094 55.619 20.5272 53.9152 20.5244V20.5244ZM53.9235 10.4053C53.2036 10.4053 52.5115 10.5232 51.8638 10.7393L52.8033 13.5847C53.1563 13.4669 53.5316 13.4023 53.9207 13.4023C55.6274 13.4051 57.0505 14.6286 57.373 16.2562L60.286 15.6613C59.6884 12.6671 57.0672 10.4081 53.9235 10.4053V10.4053Z" fill="white"/>
</svg>
