<svg width="81" height="35" viewBox="0 0 81 35" fill="none" xmlns="http://www.w3.org/2000/svg">
<g clip-path="url(#clip0_811_391)">
<path d="M22.9157 0H14.6191C10.9531 0.174097 7.9565 1.65716 7.09127 4.71546C6.64011 6.31043 6.39182 8.06213 6.03903 9.71551C4.24554 18.1224 2.65524 26.7609 0.939697 35H65.532C70.5255 35 73.9544 33.9401 74.8808 29.9591C75.3112 28.1098 75.7236 26.0154 76.1354 23.9837C77.7408 16.0621 79.3476 8.1409 80.9921 0H22.9157Z" fill="#9E9E9E"/>
<path d="M22.268 12.439C22.615 12.199 23.0619 11.1056 22.5513 10.6504C22.3896 10.5063 22.1192 10.4645 21.7419 10.5285C21.3919 10.5879 21.1906 10.7074 21.0539 10.8944C20.8342 11.1951 20.6326 12.1022 20.973 12.4392C21.3045 12.7672 22.0472 12.5917 22.268 12.439V12.439ZM17.3305 10.6504C17.0819 12.2706 16.8019 13.8593 16.5211 15.4471C14.7182 15.4662 12.8774 15.5365 11.1384 15.4064C11.4668 13.853 11.7024 12.2061 12.0288 10.6504H10.0862C9.3908 14.6131 8.75814 18.6391 7.98169 22.5204H9.96485C10.2758 20.5296 10.5669 18.5182 10.9765 16.626C12.6674 16.5842 14.694 16.5113 16.3188 16.6668C15.9838 18.6339 15.579 20.5305 15.2666 22.5204H17.2497C17.8871 18.4991 18.5583 14.5123 19.3544 10.6504H17.3305V10.6504ZM45.3772 14.0651C43.8342 13.4391 42.621 14.4969 42.0586 15.4879C42.1862 15.047 42.2387 14.5307 42.3421 14.0651H40.8041C40.4281 16.9938 39.874 19.7434 39.3472 22.5204H41.0876C41.3315 20.8721 41.4368 18.65 41.9778 17.0732C42.4103 15.8132 43.542 14.7397 45.1751 15.3253C45.1977 14.8604 45.3302 14.5056 45.3772 14.0651V14.0651ZM46.3483 20.5286C46.1879 20.1122 46.1465 19.425 46.1866 18.9024C46.2765 17.7279 46.7027 16.2979 47.3603 15.6504C48.2678 14.7569 50.0594 14.9048 51.4885 15.4066C51.5327 14.9228 51.6295 14.4913 51.6909 14.0245C49.3473 13.64 47.1233 13.8793 45.9441 15.1221C44.7896 16.3388 44.0331 19.1351 44.5679 20.8945C45.1939 22.9534 48.0015 23.0653 50.2744 22.2767C50.375 21.8628 50.4283 21.4015 50.5172 20.9759C49.275 21.6239 46.9004 21.9607 46.3483 20.5286V20.5286ZM65.8961 14.1057C64.358 13.3332 63.0774 14.6294 62.5775 15.4064C62.7199 15.0077 62.7281 14.4737 62.8607 14.0649H61.3229C60.9082 16.9682 60.4085 19.786 59.8256 22.5203H61.6064C61.6176 21.3996 61.8368 20.5706 62.0109 19.4717C62.383 17.125 62.9295 14.5516 65.6536 15.3251C65.7437 14.9283 65.7812 14.4782 65.8961 14.1057ZM20.4872 14.0651C20.4401 14.0719 20.4432 14.1293 20.4467 14.1869C20.0633 17.0674 19.5442 19.8119 18.9898 22.5203H20.73C21.1482 19.6204 21.6272 16.782 22.2274 14.0649L20.4872 14.0651V14.0651ZM35.7854 13.9025C34.5279 13.9999 33.465 14.3633 32.7096 15.1627C31.7831 16.1431 31.0329 18.3107 31.2527 20.2848C31.5664 23.1009 35.0573 22.9998 37.8495 22.3173C37.8971 21.8229 38.0162 21.4004 38.0923 20.9351C36.9421 21.3674 34.945 21.9708 33.7617 21.2198C32.8685 20.6524 32.8633 19.2162 33.1546 17.9677C35.0313 17.9077 36.9817 17.9191 38.861 17.9677C38.9801 17.0828 39.3213 16.1181 39.0229 15.2442C38.6294 14.0904 37.2198 13.7914 35.7854 13.9025ZM37.4447 16.9919H33.3569C33.4864 16.048 34.3318 15.0106 35.6639 14.9594C36.9176 14.9113 37.8152 15.4217 37.4447 16.9919V16.9919ZM29.1886 14.0651C27.7157 13.5093 25.9207 14.1727 25.1423 14.8038C25.1451 14.8316 25.1238 14.8354 25.1008 14.8374C25.114 14.8262 25.1285 14.815 25.1423 14.8038C25.1422 14.8015 25.1419 14.7991 25.1415 14.7968C25.1546 14.5255 25.2496 14.3364 25.2628 14.0651H23.7654C23.1414 18.2351 22.4014 22.2884 21.6206 26.3008H23.3608C23.6127 24.7382 23.7789 23.0896 24.1298 21.6261C24.5273 23.1653 27.1223 22.8713 28.2175 22.2765C30.4767 21.0492 32.2195 15.2085 29.1886 14.0651V14.0651ZM27.8127 20.9351C26.8816 21.9255 24.5926 21.9107 24.413 20.2439C24.3349 19.5188 24.6038 18.7585 24.737 18.0082C24.8714 17.2489 24.9684 16.5203 25.101 15.8537C26.0181 14.729 28.7129 14.5931 28.9864 16.4635C29.2235 18.0873 28.5836 20.1148 27.8127 20.9351V20.9351ZM72.3714 10.4065C72.2223 11.7201 72.0229 12.9833 71.7645 14.1869C67.4957 12.8297 64.8778 15.9844 64.925 19.8782C64.9342 20.6312 65.0633 21.378 65.5319 21.9107C66.3402 22.8284 68.6537 23.0482 69.8221 22.2764C70.048 22.1271 70.2792 21.8553 70.4289 21.6668C70.5416 21.5249 70.7203 21.1532 70.7528 21.2602C70.6912 21.6727 70.5994 22.0549 70.5911 22.5203H72.1695C72.4739 18.1374 73.4142 14.3939 74.1121 10.4064H72.3716V10.4065H72.3714ZM68.4863 21.5854C67.3148 21.6106 66.7323 20.8823 66.7054 19.6749C66.6587 17.5601 67.5823 15.2107 69.4576 15C70.3307 14.902 70.9629 15.1059 71.6027 15.3253C71.0153 17.7008 71.2272 21.5263 68.4863 21.5854V21.5854ZM53.4714 14.0651C53.3857 14.5481 53.2542 14.9851 53.1476 15.4471C54.1746 15.1884 57.3723 14.3955 57.6805 15.7723C57.7828 16.2297 57.6063 16.7157 57.4781 17.0732C54.5866 16.7981 52.2298 17.2806 51.6097 19.3496C51.1945 20.7354 51.6562 22.0991 52.5406 22.4798C54.2439 23.2129 56.3157 22.3731 57.0329 21.2198C56.9584 21.619 56.8878 22.0226 56.9117 22.5204H58.409C58.425 21.08 58.6337 19.914 58.8542 18.6178C59.0421 17.5141 59.3958 16.4213 59.3399 15.4471C59.211 13.2161 55.5312 14.0053 53.4714 14.0651V14.0651ZM56.3043 20.8943C55.4075 21.7762 52.8901 22.0267 53.1476 19.9187C53.3614 18.168 55.2593 17.796 57.3159 18.0487C57.1631 19.0064 56.9878 20.2224 56.3043 20.8943V20.8943Z" fill="white"/>
</g>
<defs>
<clipPath id="clip0_811_391">
<rect width="80.0685" height="35" fill="white" transform="translate(0.931641)"/>
</clipPath>
</defs>
</svg>
